<?xml version="1.0" encoding="UTF-8" standalone="no"?>
<svg
   xmlns:dc="http://purl.org/dc/elements/1.1/"
   xmlns:cc="http://creativecommons.org/ns#"
   xmlns:rdf="http://www.w3.org/1999/02/22-rdf-syntax-ns#"
   xmlns:svg="http://www.w3.org/2000/svg"
   xmlns="http://www.w3.org/2000/svg"
   xmlns:xlink="http://www.w3.org/1999/xlink"
   xmlns:sodipodi="http://sodipodi.sourceforge.net/DTD/sodipodi-0.dtd"
   xmlns:inkscape="http://www.inkscape.org/namespaces/inkscape"
   width="900"
   height="1000"
   version="1.1"
   id="svg5178"
   sodipodi:docname="xiangqiboard.svg"
   inkscape:version="0.92.3 (2405546, 2018-03-11)">
  <metadata
     id="metadata5182">
    <rdf:RDF>
      <cc:Work
         rdf:about="">
        <dc:format>image/svg+xml</dc:format>
        <dc:type
           rdf:resource="http://purl.org/dc/dcmitype/StillImage" />
        <dc:title>棋盤</dc:title>
      </cc:Work>
    </rdf:RDF>
  </metadata>
  <sodipodi:namedview
     pagecolor="#ffffff"
     bordercolor="#666666"
     borderopacity="1"
     objecttolerance="10"
     gridtolerance="10"
     guidetolerance="10"
     inkscape:pageopacity="0"
     inkscape:pageshadow="2"
     inkscape:window-width="1299"
     inkscape:window-height="713"
     id="namedview5180"
     showgrid="false"
     inkscape:zoom="0.62696801"
     inkscape:cx="651.44565"
     inkscape:cy="670.65273"
     inkscape:window-x="67"
     inkscape:window-y="27"
     inkscape:window-maximized="1"
     inkscape:current-layer="svg5178" />
  <title
     id="title4949">棋盤</title>
  <rect
     width="900"
     height="1000"
     x="0"
     y="0"
     id="rect4951"
     style="fill:#cc5522;stroke-width:0.91287088" />
  <rect
     width="812"
     height="912"
     x="44"
     y="44"
     id="rect4953"
     style="fill:#cc5522;stroke:#000000;stroke-width:4" />
  <rect
     width="800"
     height="900"
     x="50"
     y="50"
     id="rect4955"
     style="fill:#cc5522;stroke:#000000;stroke-width:4" />
  <defs
     id="defs5084">
    <g
       id="mark">
      <polygon
         points="8,38 12,38 12,12 38,12 38,8 8,8 "
         id="polygon4957"
         style="fill:#000000" />
    </g>
    <g
       id="mark2R">
      <use
         xlink:href="#mark"
         id="use4960"
         x="0"
         y="0"
         width="100%"
         height="100%" />
      <use
         xlink:href="#mark"
         transform="rotate(-90)"
         id="use4962"
         x="0"
         y="0"
         width="100%"
         height="100%" />
    </g>
    <g
       id="mark2L">
      <use
         xlink:href="#mark2R"
         transform="scale(-1)"
         id="use4965"
         x="0"
         y="0"
         width="100%"
         height="100%" />
    </g>
    <g
       id="mark4">
      <use
         xlink:href="#mark2R"
         id="use4968"
         x="0"
         y="0"
         width="100%"
         height="100%" />
      <use
         xlink:href="#mark2L"
         id="use4970"
         x="0"
         y="0"
         width="100%"
         height="100%" />
    </g>
    <g
       id="diagonal2">
      <polygon
         id="diagonal"
         points="100,100 0,0 "
         style="stroke:#000000;stroke-width:4" />
      <use
         xlink:href="#diagonal"
         transform="rotate(-90,100,100)"
         id="use4974"
         x="0"
         y="0"
         width="100%"
         height="100%" />
    </g>
    <g
       id="lattice32">
      <g
         id="lattice16">
        <g
           id="lattice4">
          <rect
             id="lattice"
             width="100"
             height="100"
             x="0"
             y="0"
             style="fill:#cc5522;stroke:#000000;stroke-width:4" />
          <use
             xlink:href="#lattice"
             x="100"
             y="0"
             id="use4978"
             width="100%"
             height="100%" />
          <use
             xlink:href="#lattice"
             x="200"
             y="0"
             id="use4980"
             width="100%"
             height="100%" />
          <use
             xlink:href="#lattice"
             x="300"
             y="0"
             id="use4982"
             width="100%"
             height="100%" />
        </g>
        <use
           xlink:href="#lattice4"
           x="0"
           y="100"
           id="use4985"
           width="100%"
           height="100%" />
        <use
           xlink:href="#lattice4"
           x="0"
           y="200"
           id="use4987"
           width="100%"
           height="100%" />
        <use
           xlink:href="#lattice4"
           x="0"
           y="300"
           id="use4989"
           width="100%"
           height="100%" />
        <use
           xlink:href="#mark2R"
           x="0"
           y="300"
           id="use4991"
           width="100%"
           height="100%" />
        <use
           xlink:href="#mark4"
           x="100"
           y="200"
           id="use4993"
           width="100%"
           height="100%" />
        <use
           xlink:href="#mark4"
           x="200"
           y="300"
           id="use4995"
           width="100%"
           height="100%" />
        <use
           xlink:href="#mark2L"
           x="400"
           y="300"
           id="use4997"
           width="100%"
           height="100%" />
        <use
           xlink:href="#diagonal2"
           x="300"
           y="0"
           id="use4999"
           width="100%"
           height="100%" />
      </g>
      <use
         xlink:href="#lattice16"
         x="400"
         y="0"
         transform="matrix(-1,0,0,1,1200,0)"
         id="use5002"
         width="100%"
         height="100%" />
    </g>
    <g
       id="halfboard">
      <use
         xlink:href="#lattice32"
         x="50"
         y="6"
         id="use5005"
         width="100%"
         height="100%" />
    </g>
  </defs>
  <use
     xlink:href="#halfboard"
     x="0"
     y="144"
     id="use5086"
     width="100%"
     height="100%"
     transform="translate(0,-100)" />
  <use
     xlink:href="#halfboard"
     x="0"
     y="144"
     transform="rotate(180,450,550)"
     id="use5088"
     width="100%"
     height="100%" />
  <g
     id="g5401"
     transform="translate(0,-100)">
    <svg
       id="svg5176"
       version="1.1"
       viewBox="0 0 796 96"
       height="96"
       width="796"
       y="552"
       x="52">
      <g
         id="g5174"
         transform="matrix(0.1,0,0,-0.1,0,96)"
         style="fill:#000000">
        <path
           id="path5146"
           d="m 6385,728 c -19,-40 -57,-98 -84,-128 -49,-53 -50,-54 -45,-24 l 6,31 -94,30 c -100,33 -111,32 -129,-15 -6,-16 -4,-52 6,-107 9,-45 18,-116 20,-156 2,-41 4,-75 4,-77 1,-1 11,4 24,12 12,8 53,20 91,26 83,13 89,16 81,41 -19,60 107,-40 167,-133 17,-26 33,-48 36,-48 13,0 -13,72 -44,122 -19,32 -32,63 -28,69 13,22 114,3 161,-30 34,-24 43,-27 43,-14 0,26 -65,79 -114,92 -71,18 -95,14 -108,-14 l -11,-26 -33,32 c -22,22 -39,30 -53,26 -16,-4 -21,1 -26,25 -9,38 2,51 108,138 78,63 87,75 87,104 0,47 -11,96 -21,96 -5,0 -24,-33 -44,-72 z M 6126,540 c 0,-46 -1,-50 -23,-50 -16,0 -23,6 -23,19 0,10 -3,33 -6,50 -6,29 -5,31 22,31 28,0 29,-2 30,-50 z m 82,-7 c 3,-37 0,-43 -16,-43 -20,0 -32,25 -32,68 0,19 5,23 23,20 18,-2 23,-10 25,-45 z m -68,-107 c 0,-7 3,-28 6,-46 7,-30 6,-31 -22,-28 -23,2 -30,8 -32,31 -2,16 -1,35 2,43 7,18 46,18 46,0 z m 83,-18 c 6,-40 2,-48 -24,-48 -16,0 -19,7 -19,40 0,33 4,40 19,40 13,0 20,-9 24,-32 z"
           inkscape:connector-curvature="0" />
        <path
           id="path5148"
           d="m 5737,743 c -11,-21 -12,-42 -6,-83 12,-83 11,-100 -6,-100 -10,0 -16,16 -21,50 -8,61 -28,62 -32,2 -5,-62 -22,-51 -22,13 0,50 -2,55 -22,55 -12,0 -30,8 -41,17 -18,17 -20,17 -37,-5 -15,-18 -18,-33 -13,-72 4,-34 2,-50 -6,-50 -6,0 -11,11 -11,25 0,21 -5,25 -22,24 -54,-5 -58,-2 -58,50 0,28 -4,52 -9,55 -16,10 -34,-24 -33,-60 1,-31 -1,-34 -19,-29 -24,8 -49,-10 -49,-36 0,-15 8,-19 39,-19 42,0 51,-11 51,-61 0,-24 -4,-29 -24,-29 -16,0 -26,-7 -30,-22 -7,-30 7,-43 32,-29 29,16 30,15 38,-24 8,-45 28,-40 32,8 3,32 8,39 38,52 20,8 33,19 29,25 -3,5 1,10 9,10 16,0 21,-36 16,-99 -1,-20 2,-22 17,-16 10,4 32,11 49,15 50,12 53,16 43,61 -9,40 -6,59 8,46 3,-4 9,-23 12,-44 9,-56 31,-55 31,2 0,33 4,45 13,43 7,-3 15,-37 21,-91 4,-48 12,-87 16,-87 4,0 13,7 20,15 10,12 11,31 4,80 -6,36 -7,65 -3,65 21,0 76,-62 101,-115 l 29,-60 -6,50 c -7,63 -49,132 -95,156 -42,23 -48,39 -49,152 -1,91 -10,107 -34,60 z M 5610,614 c 15,-38 13,-44 -15,-44 -22,0 -25,4 -25,35 0,42 25,48 40,9 z m -121,-65 c 12,-34 7,-49 -13,-49 -14,0 -26,29 -26,63 0,29 27,19 39,-14 z m 141,-41 c 0,-7 3,-23 6,-35 5,-18 2,-23 -14,-23 -23,0 -27,4 -36,43 -6,24 -4,27 19,27 14,0 25,-6 25,-12 z"
           inkscape:connector-curvature="0" />
        <path
           id="path5150"
           d="m 1685,719 c -33,-37 -35,-43 -22,-56 31,-31 77,16 77,78 0,29 -14,23 -55,-22 z"
           inkscape:connector-curvature="0" />
        <path
           id="path5152"
           d="m 1381,734 c -12,-9 -19,-20 -14,-24 8,-8 128,-58 205,-85 58,-21 54,0 -6,34 -30,17 -70,44 -89,61 -39,34 -62,37 -96,14 z"
           inkscape:connector-curvature="0" />
        <path
           id="path5154"
           d="m 2040,735 c 0,-28 46,-101 80,-127 l 31,-24 -61,-104 c -82,-143 -86,-156 -65,-241 9,-38 21,-69 26,-69 5,0 9,3 9,8 0,33 33,200 46,232 14,34 21,40 45,40 25,0 29,-4 34,-37 14,-86 15,-88 32,-71 12,13 13,24 5,62 l -10,47 38,-3 c 35,-2 38,-4 44,-37 3,-20 6,-44 6,-55 0,-17 -1,-17 -26,-1 -14,9 -28,15 -30,12 -8,-8 41,-107 53,-107 19,0 46,48 45,81 -1,26 1,28 20,18 11,-6 36,-9 54,-7 19,2 34,2 34,0 0,-3 -16,-22 -36,-44 -28,-32 -33,-42 -23,-54 25,-30 59,-5 82,61 19,55 33,54 47,-5 12,-51 34,-66 45,-31 3,10 1,30 -4,45 -10,26 -10,26 34,26 35,0 45,4 50,21 9,29 2,33 -55,30 l -50,-2 -6,40 c -5,34 -9,39 -20,30 -8,-6 -14,-22 -14,-35 0,-13 -3,-24 -6,-24 -10,0 -89,57 -108,79 -11,11 -23,21 -28,21 -13,0 11,-41 45,-77 l 31,-33 h -30 c -16,0 -38,-3 -50,-6 -20,-5 -22,2 -43,132 -12,76 -24,141 -27,143 -3,3 -9,-1 -15,-9 -9,-14 -7,-47 7,-127 l 6,-33 h -71 -71 l 17,34 c 14,30 18,33 35,23 16,-10 22,-8 39,12 25,31 21,43 -18,46 -39,3 -79,31 -132,92 -29,32 -41,41 -41,28 z"
           inkscape:connector-curvature="0" />
        <path
           id="path5156"
           d="m 5846,703 c -26,-41 -53,-119 -44,-129 6,-5 66,55 108,109 29,37 26,57 -10,57 -23,0 -35,-8 -54,-37 z"
           inkscape:connector-curvature="0" />
        <path
           id="path5158"
           d="m 2327,710 c 3,-11 23,-40 44,-64 l 40,-45 -43,-3 c -30,-2 -43,-7 -43,-18 0,-11 15,-16 54,-20 48,-4 52,-7 38,-19 -26,-21 -22,-53 5,-49 15,2 25,13 32,36 5,17 13,32 17,32 5,0 12,-15 17,-32 11,-44 37,-44 37,1 v 33 l 42,-5 c 28,-3 46,0 54,9 22,27 5,38 -54,35 l -56,-2 -7,51 c -8,61 -28,62 -32,2 l -3,-42 -46,32 c -25,18 -54,45 -65,60 -23,33 -38,37 -31,8 z"
           inkscape:connector-curvature="0" />
        <path
           id="path5160"
           d="m 1826,669 c -42,-45 -42,-62 -3,-67 23,-3 30,2 42,32 17,40 20,76 6,76 -5,0 -25,-18 -45,-41 z"
           inkscape:connector-curvature="0" />
        <path
           id="path5162"
           d="m 1750,578 c -10,-22 -10,-46 3,-129 9,-57 14,-105 11,-109 -3,-3 -85,-5 -182,-5 h -177 l 3,45 4,45 -46,-45 c -25,-24 -46,-50 -46,-57 0,-7 12,-20 26,-29 21,-15 56,-17 227,-18 l 202,-1 3,-57 c 2,-42 7,-58 17,-58 36,0 37,37 10,223 -15,100 -30,191 -35,202 -7,19 -8,18 -20,-7 z"
           inkscape:connector-curvature="0" />
        <path
           id="path5164"
           d="m 1657,573 c -4,-6 -33,-17 -65,-23 -69,-15 -76,-18 -63,-33 5,-7 12,-33 16,-59 6,-38 11,-48 26,-48 10,0 34,-7 53,-17 42,-20 66,-6 65,36 -1,49 -25,156 -32,144 z m -7,-72 c 19,-37 12,-51 -24,-51 -22,0 -36,6 -40,16 -11,29 -6,43 17,47 12,2 25,5 29,6 4,0 12,-8 18,-18 z"
           inkscape:connector-curvature="0" />
        <path
           id="path5166"
           d="m 6360,566 c -6,-6 -10,-19 -10,-29 0,-18 5,-19 46,-13 26,3 89,6 141,6 69,0 94,3 91,12 -3,7 -18,15 -34,19 -49,12 -223,16 -234,5 z"
           inkscape:connector-curvature="0" />
        <path
           id="path5168"
           d="m 5414,315 c -16,-38 -18,-65 -6,-65 4,0 25,15 45,34 41,38 41,66 0,66 -18,0 -28,-9 -39,-35 z"
           inkscape:connector-curvature="0" />
        <path
           id="path5170"
           d="m 5650,320 c 0,-5 22,-21 50,-35 27,-14 65,-39 84,-56 29,-25 41,-29 65,-24 33,7 58,30 43,39 -10,6 -231,86 -238,86 -2,0 -4,-4 -4,-10 z"
           inkscape:connector-curvature="0" />
        <path
           id="path5172"
           d="m 5567,288 c -15,-12 -37,-58 -37,-79 0,-19 27,-8 60,26 28,29 31,37 20,50 -15,18 -21,19 -43,3 z"
           inkscape:connector-curvature="0" />
      </g>
    </svg>
  </g>
</svg>
