<svg viewBox="0 0 67 67" xmlns="http://www.w3.org/2000/svg"><g transform="translate(-140.06 -10.25)"><text x="10.8125" y="51.5312" fill="#000000" font-family="'DejaVu Serif'" font-size="18px" font-style="italic"  text-anchor="end" style="line-height:100%" xml:space="preserve"><tspan x="10.8125" y="65.206985"/></text><g transform="translate(42.313)" stroke="#000"><circle transform="translate(88.75,1.25)" cx="42.5" cy="42.5" r="32.5" fill="#fedaa4" stroke-linecap="round" stroke-linejoin="bevel" stroke-width="2"/><circle transform="matrix(.89566 0 0 .89566 93.184 5.6844)" cx="42.5" cy="42.5" r="32.5" fill="none" stroke-linecap="round" stroke-linejoin="bevel" stroke-width="2.233"/><path d="m137.56 46.5c.41664 2.2917 1.4323 4.3229 3.0469 6.0938 1.6146 1.7708 3.8281 3.2292 6.6406 4.375.31246-1.0417 1.4062-1.6667 3.2812-1.875v-.46875c-2.8125-.3125-5.3386-1.1458-7.5781-2.5-2.2396-1.3542-3.8282-3.3333-4.7656-5.9375 3.75-1.6667 6.1979-2.5 7.3438-2.5l-2.1875-2.6562c-.52086.62502-1.5625 1.4844-3.125 2.5781-1.5625 1.0938-3.2292 2.0573-5 2.8906-1.3542-1.4583-3.2813-2.7604-5.7812-3.9062 1.0416-1.1458 1.8229-2.1875 2.3438-3.125h10.312v1.0938l2.1875-.78125c-.1042-1.4583-.15628-3.0208-.15625-4.6875l1.4062-1.0938-2.5-2.0312-1.4062 1.5625h-8.125c1.9791-1.7708 3.4896-2.9166 4.5312-3.4375 1.0416-.52081 1.9271-.8333 2.6562-.9375l-2.8125-2.6562-1.7188 1.875h-9.2188c1.0416-1.0416 1.9792-1.6146 2.8125-1.7188l-3.125-2.1875c-.62501 1.4584-2.1094 3.3334-4.4531 5.625-2.3438 2.2917-5.1302 4.375-8.3594 6.25l.15625.625c2.3958-.72915 4.5312-1.7187 6.4062-2.9688-1e-5 2.8125-.0521 5.3646-.15625 7.6562l2.1875-.78125v-1.4062h6.875c-2.2917 3.8542-6.9792 7.0833-14.062 9.6875l.15625.46875c5.1042-1.1458 9.6354-3.2812 13.594-6.4062.62498.31251 1.1458.6771 1.5625 1.0938-2.7084 3.3333-7.1875 6.1979-13.438 8.5938l.15625.46875c5.8333-1.3542 10.729-3.9062 14.688-7.6562.41665.31251.8854.83334 1.4062 1.5625-3.9584 5-10.365 8.6979-19.219 11.094v.625c8.3333-1.3542 15.104-4.6354 20.312-9.8438.41664 1.1458.62498 2.3438.625 3.5938-2e-5 1.25-.2344 2.3177-.70312 3.2031-.46878.88542-1.0417 1.4844-1.7188 1.7969-.6771.3125-2.7865.26042-6.3281-.15625v.625c2.9166.72916 4.4792 1.7708 4.6875 3.125 2.0833-.52084 3.6458-1.4063 4.6875-2.6562 1.0416-1.25 1.6666-2.7865 1.875-4.6094.20831-1.8229-.41669-4.0885-1.875-6.7969.41664-.20832 1.0416-.46874 1.875-.78125zm-5.1562-12.969h-9.6875l-.78125-.78125c1.3542-1.1458 2.7604-2.3437 4.2188-3.5938h9.6875zm-10 .78125h8.75c-.31252 1.6667-.78127 3.125-1.4062 4.375h-7.3438zm11.094 0h8.5938v4.375h-10c.62498-1.4583 1.0937-2.9166 1.4062-4.375z" stroke-width="1px"/></g></g></svg>
