<svg viewBox="0 0 67 67" xmlns="http://www.w3.org/2000/svg"><g transform="translate(-169.46 -8.2304)"><text x="10.8125" y="51.5312" fill="#000000" font-family="'DejaVu Serif'" font-style="italic"  text-anchor="end" style="line-height:0%" xml:space="preserve"><tspan x="16.542969" y="51.5312" font-size="18px" style="line-height:1"> </tspan></text><g transform="translate(71.71 -2.0196)" stroke="#000"><circle transform="translate(88.75,1.25)" cx="42.5" cy="42.5" r="32.5" fill="#fedaa4" stroke-linecap="round" stroke-linejoin="bevel" stroke-width="2"/><circle transform="matrix(.89566 0 0 .89566 93.184 5.6844)" cx="42.5" cy="42.5" r="32.5" fill="none" stroke-linecap="round" stroke-linejoin="bevel" stroke-width="2.233"/><path d="m133.12 39.078h4.6875v7.6562h-4.6875zm3.75-12.188-3.125-1.7188c-.41669 2.0834-1.1719 4.6354-2.2656 7.6562-1.0938 3.0209-2.3698 5.8854-3.8281 8.5938l.46875.46875c1.0416-1.25 2.0833-2.7083 3.125-4.375v20c-2e-5 1.875 1.1979 2.8125 3.5938 2.8125h9.375c1.25-3e-6 2.2656-.10417 3.0469-.3125.78122-.20834 1.4843-.88542 2.1094-2.0312-.93754-.3125-1.5365-.96354-1.7969-1.9531-.26045-.98958-.39066-2.3698-.39062-4.1406h-.625c-4e-5 1.7708-.13024 3.3333-.39062 4.6875-.26046 1.3542-.9115 2.0312-1.9531 2.0312h-8.5938c-1.7709-1e-6-2.6563-.67708-2.6562-2.0312v-9.0625h4.8438v1.4062l2.0312-.9375c-.1042-1.5625-.15628-4.3229-.15625-8.2812l1.25-.9375-1.875-1.875-1.4062 1.4062h-4.6875l-1.4062-1.25 2.3438-4.6875h10.625v16.25c-3e-5.62501-.13024 1.0417-.39063 1.25-.26044.20834-2.1615.10417-5.7031-.3125v.625c1.5625.41667 2.6302.83334 3.2031 1.25.57289.41667 1.0156 1.0938 1.3281 2.0312 1.5625-.52083 2.552-1.1198 2.9688-1.7969.41663-.67708.62496-1.5365.625-2.5781v-15.781l1.4062-.9375-2.1875-2.1875-1.4062 1.4062h-10.156c1.25-2.7083 2.1354-4.2708 2.6562-4.6875zm-17.5 12.5h5.3125v13.438h-5.3125zm-2.0312 19.688 2.0312-.9375v-4.5312h5.3125v2.8125l2.0312-1.25c-.10418-2.1875-.15627-7.2396-.15625-15.156l1.4062-.78125-2.0312-2.0312-1.4062 1.4062h-5.1562c.83332-2.7083 1.6146-5.8333 2.3438-9.375h7.3438l-2.5-2.5-1.7188 1.7188h-11.719l1.25 1.25c.9375-.31247 1.9792-.46872 3.125-.46875h2.0312c-.72917 4.1667-1.6146 7.7865-2.6562 10.859-1.0417 3.0729-2.5 6.1198-4.375 9.1406l.3125.3125c1.3542-1.25 2.9167-3.3333 4.6875-6.25-1e-5 8.75-.0521 14.01-.15625 15.781z" stroke-width="1px"/></g></g></svg>
