<svg viewBox="0 0 67 67" xmlns="http://www.w3.org/2000/svg"><g transform="translate(-113.44 -9.75)"><text x="10.8125" y="51.5312" fill="#000000" font-family="'DejaVu Serif'" font-style="italic"  text-anchor="end" style="line-height:0%" xml:space="preserve"><tspan x="16.542969" y="51.5312" font-size="18px" style="line-height:1"> </tspan></text><g transform="translate(15.688 -.5)" stroke="#000"><g stroke-linecap="round" stroke-linejoin="bevel"><circle transform="translate(88.75,1.25)" cx="42.5" cy="42.5" r="32.5" fill="#fedaa4" stroke-width="2"/><circle transform="matrix(.89566 0 0 .89566 93.184 5.6844)" cx="42.5" cy="42.5" r="32.5" fill="none" stroke-width="2.233"/></g><path d="m124.06 37.266h-5.3125v-6.5625l.9375-1.0938-3.125-1.25c.10416 1.4584.15625 4.3229.15625 8.5938l-.9375.78125 2.0312 1.7188.9375-1.4062h5.3125v6.5625h-9.2188l1.25 1.25c.9375-.31249 1.8229-.46874 2.6562-.46875.10416 3.6458-.10417 6.4844-.625 8.5156-.52084 2.0313-1.875 4.349-4.0625 6.9531l.3125.46875c3.0208-2.3958 4.8698-4.6615 5.5469-6.7969.67707-2.1354 1.0156-5.1823 1.0156-9.1406h3.125c-1e-5 8.9583-.0521 14.375-.15625 16.25l2.3438-1.0938c-.10418-1.7708-.15626-2.9948-.15625-3.6719-1e-5-.67708-1e-5-10.182 0-28.516l1.4062-1.25-3.5938-1.5625c.10416 1.875.15624 5.7813.15625 11.719zm14.688-8.9062 1.25-.625-2.9688-2.1875c-1.25 3.0209-2.7344 5.5209-4.4531 7.5-1.7188 1.9792-3.5156 3.6459-5.3906 5l.3125.46875c1.7708-.93748 3.3854-2.0052 4.8438-3.2031 1.4583-1.1979 2.9166-2.5781 4.375-4.1406h8.9062c-1.9792 3.2292-4.4792 6.0938-7.5 8.5938-3.0209 2.5-6.875 4.4271-11.562 5.7812l.15625.46875c4.4792-.72915 8.3073-2.1875 11.484-4.375 3.1771-2.1875 5.5729-4.2969 7.1875-6.3281 1.6146-2.0312 2.9948-3.151 4.1406-3.3594l-2.5-2.9688-1.5625 1.4062h-8.2812c.52081-.62497 1.0416-1.3021 1.5625-2.0312zm3.75 17.969h-15.625l1.25 1.25c.93748-.31249 1.9792-.46874 3.125-.46875h11.25v9.5312c-3e-5.83333-.44274 1.276-1.3281 1.3281-.88545.05208-2.8907-.13021-6.0156-.54688v.78125c3.6458.83333 5.5208 2.0833 5.625 3.75 2.6041-.72917 3.8541-2.2917 3.75-4.6875v-10.156h6.4062l-2.5-2.6562-1.875 1.875h-2.0312v-3.2812l1.25-1.0938-3.4375-1.5625c.10414 1.3542.15622 3.3333.15625 5.9375zm-11.25 2.3438-.46875.3125c1.1458 2.0833 1.8489 3.9063 2.1094 5.4688.2604 1.5625.72915 2.0313 1.4063 1.4062.67706-.625 1.0416-1.3021 1.0937-2.0312.0521-.72916-.20835-1.4583-.78124-2.1875-.57294-.72916-1.6927-1.7187-3.3594-2.9688zm3.9062-15.781-.46875.3125c1.4583 1.4584 2.3958 2.7084 2.8125 3.75.41664 1.0417.85935 1.3281 1.3281.85938.46873-.46873.7031-1.0677.70313-1.7969-3e-5-.72914-.31253-1.276-.9375-1.6406-.62503-.36456-1.7709-.85935-3.4375-1.4844zm-3.5938 2.9688-.46875.3125c1.1458 1.25 1.901 2.4219 2.2656 3.5156.36456 1.0938.78122 1.4063 1.25.9375.46872-.46873.72914-1.0156.78124-1.6406.0521-.62498-.23439-1.1719-.85937-1.6406-.62502-.46873-1.6146-.96352-2.9688-1.4844z" stroke-width="1px"/></g></g></svg>
