<svg viewBox="0 0 67 67" xmlns="http://www.w3.org/2000/svg"><g transform="translate(-122 -7.8769)"><text x="10.8125" y="51.5312" fill="#000000" font-family="'DejaVu Serif'" font-style="italic"  text-anchor="end" style="line-height:0%" xml:space="preserve"><tspan x="16.542969" y="51.5312" font-size="18px" style="line-height:1"> </tspan></text><g transform="translate(24.246 -2.3731)" stroke="#000"><circle transform="translate(88.75,1.25)" cx="42.5" cy="42.5" r="32.5" fill="#fedaa4" stroke-linecap="round" stroke-linejoin="bevel" stroke-width="2"/><circle transform="matrix(.89566 0 0 .89566 93.184 5.6844)" cx="42.5" cy="42.5" r="32.5" fill="none" stroke-linecap="round" stroke-linejoin="bevel" stroke-width="2.233"/><path d="m118.36 49.031 2.3437-.78125v-1.7188l24.531-.3125c-4e-5 3.0208-.13025 5.4688-.39063 7.3438-.26045 1.875-.65107 3.2031-1.1719 3.9844-.52087.78125-1.4584 1.0937-2.8125.9375-1.3542-.15625-2.9167-.39062-4.6875-.70312l-.15626.78125c3.5416.72916 5.4166 1.8229 5.625 3.2812 1.875-.52084 3.1771-1.3542 3.9063-2.5.72913-1.1458 1.2239-2.6302 1.4844-4.4531.26038-1.8229.44267-4.4531.54687-7.8906l1.7188-1.0938-2.9688-2.5-1.4062 2.0312-11.406.15625v-5.1562h12.031l-2.6563-2.6562-1.875 1.875h-7.5v-5.1562h12.031l-2.5-2.5-1.7188 1.7188h-7.8125v-5.3125h13.75l-2.8125-2.8125-2.0312 2.0312h-21.25l-2.8125-1.4062c.10415 3.2292.15624 6.7969.15624 10.703 0 3.9063-.0521 7.9427-.15624 12.109zm-.46876.9375c-.72917 2.7083-1.6927 4.5313-2.8906 5.4688-1.1979.9375-1.5885 1.7448-1.1719 2.4219.41667.67708 1.1198.83333 2.1094.46875.98958-.36458 1.7187-1.1719 2.1875-2.4219.46874-1.25.65103-3.2292.54688-5.9375zm4.2188.15625c1.1458 2.3958 1.7448 4.2448 1.7969 5.5469.0521 1.3021.4427 1.8229 1.1719 1.5625.72916-.26042 1.1719-.78125 1.3281-1.5625.15624-.78125-.0261-1.6406-.54687-2.5781-.52085-.93749-1.6146-2.0833-3.2813-3.4375zm14.375-1.25c1.4583 1.6667 2.3437 3.151 2.6562 4.4531.31248 1.3021.75519 1.875 1.3281 1.7188.57289-.15625.98955-.57291 1.25-1.25.26039-.67708.10414-1.4583-.46875-2.3438-.57295-.88541-2.0052-1.901-4.2969-3.0469zm-15.781-20.469h10.625v5.3125h-10.625zm0 6.0938h10.625v5.1562h-10.625zm0 5.9375h10.625v5.1562l-10.625.15625zm8.4375 8.9062c1.1458 1.4583 1.875 2.9688 2.1875 4.5312.31248 1.5625.80728 2.2396 1.4844 2.0312.67706-.20833 1.0937-.65104 1.25-1.3281.15623-.67708-.0261-1.4583-.54688-2.3438-.52085-.88541-1.8229-2.0052-3.9062-3.3594z" stroke-width="1px"/></g></g></svg>
