<svg viewBox="0 0 67 67" xmlns="http://www.w3.org/2000/svg"><g transform="translate(-137.11 -6.4627)"><text x="10.8125" y="51.5312" fill="#000000" font-family="'DejaVu Serif'" font-size="18px" font-style="italic"  text-anchor="end" style="line-height:100%" xml:space="preserve"><tspan x="10.8125" y="65.206985"/></text><g transform="translate(39.36 -3.7873)" stroke="#000"><circle transform="translate(88.75,1.25)" cx="42.5" cy="42.5" r="32.5" fill="#fedaa4" stroke-linecap="round" stroke-linejoin="bevel" stroke-width="2"/><circle transform="matrix(.89566 0 0 .89566 93.184 5.6844)" cx="42.5" cy="42.5" r="32.5" fill="none" stroke-linecap="round" stroke-linejoin="bevel" stroke-width="2.233"/><path d="m123.59 31.109c-.31251 1.6667-1.1198 3.8802-2.4219 6.6406-1.3021 2.7604-3.0469 5.2865-5.2344 7.5781l.46875.3125c2.5-1.6667 4.9479-4.5312 7.3438-8.5938 1.6666 1.7709 2.7344 3.3594 3.2031 4.7656.46874 1.4063 1.0156 1.5625 1.6406.46875.62498-1.0937.62498-2.0052 0-2.7344-.62502-.72915-2.1354-1.7708-4.5312-3.125.52082-.93748.93749-1.6406 1.25-2.1094.31249-.46873.83332-.91144 1.5625-1.3281zm15.938 2.0312-3.125-2.0312c-.62502 2.1875-1.5886 4.4271-2.8906 6.7188-1.3021 2.2917-3.2031 4.7396-5.7031 7.3438l.46875.3125c.62498-.41666 1.25-.8854 1.875-1.4062v3.75h-16.875l1.25 1.25c.9375-.31249 1.9792-.46874 3.125-.46875h12.5v8.4375c-2e-5.625-.0521 2.0312-.15625 4.2188l2.5-.9375c-.10419-1.9792-.15627-3.2812-.15625-3.9062v-7.8125h16.875l-2.8125-3.125-2.3438 2.3438h-11.719v-1.5625l1.4062-1.0938-3.2812-1.4062c2.1875-2.0833 4.0625-4.1666 5.625-6.25 1.3541 1.25 2.4479 2.4479 3.2812 3.5938.8333 1.1458 1.4583 2.1875 1.875 3.125.41664.93751.96351.83334 1.6406-.3125.67706-1.1458.44268-2.2396-.70312-3.2812-1.1459-1.0416-3.0729-2.2916-5.7812-3.75.41664-.62498.85935-1.3021 1.3281-2.0312.46872-.72914 1.0677-1.3021 1.7969-1.7188zm-10.625-8.5938-.46875.46875c1.25 1.6667 1.9271 3.2813 2.0312 4.8438h-15.469l1.25 1.25c.93749-.31247 1.9792-.46872 3.125-.46875h26.875l-2.9688-3.125-2.3438 2.3438h-9.375c.93748-.8333 1.25-1.6666.9375-2.5-.31252-.8333-1.5104-1.7708-3.5938-2.8125z" stroke-width="1px"/></g></g></svg>
