<svg viewBox="0 0 67 67" xmlns="http://www.w3.org/2000/svg"><g transform="translate(-78.687 -11.518)"><text x="10.8125" y="51.5312" fill="#000000" font-family="'DejaVu Serif'" font-style="italic"  text-anchor="end" style="line-height:0%" xml:space="preserve"><tspan x="16.542969" y="51.5312" font-size="18px" style="line-height:1"> </tspan></text><g transform="translate(-19.063 1.2678)" stroke="#000"><g stroke-linecap="round" stroke-linejoin="bevel"><circle transform="translate(88.75,1.25)" cx="42.5" cy="42.5" r="32.5" fill="#fedaa4" stroke-width="2"/><circle transform="matrix(.89566 0 0 .89566 93.184 5.6844)" cx="42.5" cy="42.5" r="32.5" fill="none" stroke-width="2.233"/></g><path d="m120.78 36.719h8.9062v5.1562h-8.9062zm10.938 0h9.2188v5.1562h-9.2188zm-10.938 5.9375h8.9062v4.6875h-8.9062zm10.938 0h9.2188v4.6875h-9.2188zm-12.969-.078125c-1e-5 3.5938-.0521 6.3281-.15625 8.2031l2.1875-1.0938v-1.5625h8.9062v5.1562h-17.031l1.25 1.25c.9375-.3125 1.9792-.46875 3.125-.46875h12.656c-2e-5 3.75-.0521 6.4583-.15625 8.125l2.3438-.78125c-.10419-2.6042-.15627-5.0521-.15625-7.3438h18.125l-3.2812-3.125-2.5 2.3438h-12.344v-5.1562h9.2188v2.0312l2.1875-.9375c-.1042-1.7708-.15628-5.6771-.15625-11.719l1.5625-.9375-2.3438-2.3438-1.7188 1.7188h-8.75v-4.0625h15.938l-2.8125-2.8125-2.1875 2.0312h-10.938v-3.125l1.875-1.4062-4.0625-1.25c.10415 1.9792.15623 3.9063.15625 5.7812h-15l1.25 1.25c.93749-.31247 1.9792-.46872 3.125-.46875h10.625v4.0625h-8.5938l-2.5-1.4062c.10416 1.7709.15624 4.4531.15625 8.0469z" stroke-width="1px"/></g></g></svg>
