<svg viewBox="0 0 67 67" xmlns="http://www.w3.org/2000/svg"><g transform="translate(-10.688 -10.75)"><text x="10.8125" y="51.5312" fill="#000000" font-family="'DejaVu Serif'" font-size="18px" font-style="italic"  text-anchor="end" style="line-height:100%" xml:space="preserve"><tspan x="10.8125" y="65.206985"/></text><g transform="translate(-11.062 .5)"><circle transform="translate(12.75,1.25)" cx="42.5" cy="42.5" r="32.5" fill="#fedaa4" stroke="#000" stroke-linecap="round" stroke-linejoin="bevel" stroke-width="2"/><circle transform="matrix(.89566 0 0 .89566 17.184 5.6844)" cx="42.5" cy="42.5" r="32.5" fill="none" stroke="#c00" stroke-linecap="round" stroke-linejoin="bevel" stroke-width="2.233"/><path d="m46.422 55.312v-16.719l1.0938-1.0938-2.3438-1.0938c1.0417-2.0833 2.0052-3.9844 2.8906-5.7031.8854-1.7187 1.7448-2.7864 2.5781-3.2031l-3.5938-2.1875c-1.0417 4.375-2.3698 8.2292-3.9844 11.562-1.6146 3.3334-3.6198 6.7188-6.0156 10.156l.46875.46875c2.0833-2.1875 4.2708-5.1042 6.5625-8.75v16.719c-9e-6 1.7708-.05209 4.0104-.15625 6.7188l2.6562-1.0938c-.10418-2.0833-.15626-4.0104-.15625-5.7812zm12.5-22.188v5.625h-10.938l1.25 1.25c.93748-.31248 1.9792-.46873 3.125-.46875h6.5625v17.969h-9.375l1.25 1.25c.93748-.3125 1.9791-.46875 3.125-.46875h17.656l-2.6562-2.8125-2.0312 2.0312h-5.625v-17.969h12.188l-2.8125-3.125-2.5 2.3438h-6.875v-10.156l1.0938-.9375-3.5938-1.7188c.10414 2.7084.15623 5.1042.15625 7.1875z" fill="#c00" stroke="#c00" stroke-width="1px"/></g></g></svg>
