<svg viewBox="0 0 67 67" xmlns="http://www.w3.org/2000/svg"><g transform="translate(-2.0625 -10.25)"><text x="10.8125" y="51.5312" fill="#000000" font-family="'DejaVu Serif'" font-style="italic"  text-anchor="end" style="line-height:0%" xml:space="preserve"><tspan x="16.542969" y="51.5312" font-size="18px" style="line-height:1"> </tspan></text><g transform="translate(-19.687)"><circle transform="translate(12.75,1.25)" cx="42.5" cy="42.5" r="32.5" fill="#fedaa4" stroke="#000" stroke-linecap="round" stroke-linejoin="bevel" stroke-width="2"/><circle transform="matrix(.89566 0 0 .89566 17.184 5.6844)" cx="42.5" cy="42.5" r="32.5" fill="none" stroke="#c00" stroke-linecap="round" stroke-linejoin="bevel" stroke-width="2.233"/><path d="m58.359 47.156h10v8.9062h-10zm-2.1875 13.594 2.1875-.9375v-2.9688h10v3.5938l2.3438-1.0938c-.1042-2.5-.15628-12.031-.15625-28.594l1.4062-1.0938-2.1875-2.1875-1.7188 1.7188h-9.5312l-2.3438-1.5625c.10414 2.3959.15623 7.8125.15625 16.25-2.1e-5 8.4375-.0521 14.062-.15625 16.875zm2.1875-30.781h10v7.9688h-10zm0 8.75h10v7.6562h-10zm-12.812-3.5938h-7.8125l1.25 1.25c.9375-.31248 1.9792-.46873 3.125-.46875h3.125c-1.0417 5.2084-3.8542 10.99-8.4375 17.344l.46875.46875c3.4375-3.2292 6.1979-7.0312 8.2812-11.406-1e-5 5.9375-.05209 12.135-.15625 18.594l2.3438-1.0938c-.10418-2.6042-.15626-9.1146-.15625-19.531 1.4583.93752 2.4739 2.2656 3.0469 3.9844.5729 1.7188 1.1979 1.9792 1.875.78125.67706-1.1979.5729-2.1875-.3125-2.9688-.88543-.78123-2.4219-1.5885-4.6094-2.4219v-3.75h7.9688l-2.6562-2.5-1.875 1.7188h-3.4375v-7.6562l1.4062-1.0938-3.5938-1.4062c.10416 2.6042.15624 5.9896.15625 10.156z" fill="#c00" stroke="#c00" stroke-width="1px"/></g></g></svg>
