<svg viewBox="0 0 67 67" xmlns="http://www.w3.org/2000/svg"><g transform="translate(-31.46 -8.2304)"><text x="10.8125" y="51.5312" fill="#000000" font-family="'DejaVu Serif'" font-style="italic"  text-anchor="end" style="line-height:0%" xml:space="preserve"><tspan x="16.542969" y="51.5312" font-size="18px" style="line-height:1"> </tspan></text><g transform="translate(9.7104 -2.0196)"><circle transform="translate(12.75,1.25)" cx="42.5" cy="42.5" r="32.5" fill="#fedaa4" stroke="#000" stroke-linecap="round" stroke-linejoin="bevel" stroke-width="2"/><circle transform="matrix(.89566 0 0 .89566 17.184 5.6844)" cx="42.5" cy="42.5" r="32.5" fill="none" stroke="#c00" stroke-linecap="round" stroke-linejoin="bevel" stroke-width="2.233"/><path d="m59.938 48.609v.625c3.4375.72917 5.1041 1.875 5 3.4375.93747-.20833 1.901-.7552 2.8906-1.6406.98955-.88541 1.5364-2.4219 1.6406-4.6094.10413-2.1875.2083-6.875.3125-14.062l1.25-1.0938-2.8125-2.1875-1.0938 1.7188h-10.469c.72914-2.0833 1.25-3.3854 1.5625-3.9062l1.0938-.78125-3.5938-1.7188c-.20835 1.875-.83335 4.4532-1.875 7.7344-1.0417 3.2813-2.5521 6.6406-4.5312 10.078l.46875.3125c1.1458-1.1458 2.3437-2.7083 3.5938-4.6875v18.75c-1.8e-5 2.0833 1.0937 3.125 3.2812 3.125h12.5c2.1875-3e-6 3.6458-.78125 4.375-2.3438-.7292-.20833-1.25-.70312-1.5625-1.4844-.31254-.78125-.4167-2.2656-.3125-4.4531h-.78125c-.1042 1.5625-.26045 3.0208-.46875 4.375-.20837 1.3542-.7292 2.0312-1.5625 2.0312h-11.562c-1.1459-1e-6-1.7709-.625-1.875-1.875v-9.375h5.9375v1.0938l2.1875-.9375v-7.6562l1.4062-.9375-2.6562-2.3438-1.4062 1.7188h-5.3125l-1.5625-.9375c.93748-1.7708 1.7187-3.4375 2.3438-5h11.094c-3.2e-5 9.4792-.13024 14.714-.39062 15.703-.26045.98959-.80732 1.5104-1.6406 1.5625-.83336.05209-2.6563-.02603-5.4688-.23438zm-4.5312-10.312h5.9375v7.5h-5.9375zm-11.719-13.594c.10416 5.9375.15624 11.12.15625 15.547-9e-6 4.4271-.44272 8.151-1.3281 11.172-.88542 3.0208-2.6823 6.0938-5.3906 9.2188l.3125.46875c4.375-3.5417 7.0833-7.8125 8.125-12.812 1.875 1.875 3.0989 3.4635 3.6719 4.7656.5729 1.3021 1.0417 2.0052 1.4062 2.1094.36457.10417.67707-.39062.9375-1.4844.2604-1.0937-.0521-2.1094-.9375-3.0469-.88543-.93749-2.5261-1.9792-4.9219-3.125.20832-3.4375.31249-6.3021.3125-8.5938 1.4583-1.3541 2.6302-2.4739 3.5156-3.3594.8854-.88539 1.6927-1.4323 2.4219-1.6406l-2.1875-2.6562c-.62501 1.7709-1.875 3.9063-3.75 6.4062v-10.156l1.25-1.25zm-3.125 10.312h-.625c-.41667 2.3959-1.0156 4.1406-1.7969 5.2344-.78125 1.0938-.9375 1.7969-.46875 2.1094.46875.31252 1.0677.33856 1.7969.07813.72916-.2604 1.1979-.91144 1.4062-1.9531.20833-1.0416.10416-2.8646-.3125-5.4688z" fill="#c00" stroke="#c00" stroke-width="1px"/></g></g></svg>
