<svg viewBox="0 0 67 67" xmlns="http://www.w3.org/2000/svg"><g transform="translate(24.562 -9.75)"><text x="10.8125" y="51.5312" fill="#000000" font-family="'DejaVu Serif'" font-style="italic"  text-anchor="end" style="line-height:0%" xml:space="preserve"><tspan x="16.542969" y="51.5312" font-size="18px" style="line-height:1"> </tspan></text><g transform="translate(-46.312 -.5)"><g stroke-linecap="round" stroke-linejoin="bevel"><circle transform="translate(12.75,1.25)" cx="42.5" cy="42.5" r="32.5" fill="#fedaa4" stroke="#000" stroke-width="2"/><circle transform="matrix(.89566 0 0 .89566 17.184 5.6844)" cx="42.5" cy="42.5" r="32.5" fill="none" stroke="#c00" stroke-width="2.233"/></g><path d="m64.219 35.156h5.9375v15.938c-.1042.93751-.62503 1.3802-1.5625 1.3281-.93753-.05208-1.9271-.18229-2.9688-.39062v.625c2.1875.72917 3.4375 1.7708 3.75 3.125 1.9791-1.0417 2.9166-2.5 2.8125-4.375v-15.625l1.25-.9375-2.3438-2.0312-1.4062 1.5625h-5.4688v-6.25l1.4062-1.25-3.5938-1.5625c.10414 1.6667.15622 4.6875.15625 9.0625h-5.4688l-2.3438-1.25c.10415 2.3959.15623 5.8594.15625 10.391-1.9e-5 4.5313-.0521 8.4115-.15625 11.641l2.1875-1.25v-18.75h5.625v19.531c-2.7e-5 2.0833-.05211 4.5833-.15625 7.5l2.3438-1.0938c-.1042-1.875-.15628-3.6979-.15625-5.4688zm-22.969-1.875h7.8125v7.1875h-7.8125zm0 14.062h8.4375v8.9062h-8.4375zm-2.1875 12.969 2.1875-.9375v-2.3438h8.4375v2.3438l2.1875-.9375c-.10418-1.25-.15627-4.7396-.15625-10.469l.9375-.78125-1.875-2.0312-1.4062 1.4062h-8.125v-5.3125h7.8125v1.875l2.1875-1.0938c-.10418-1.4583-.15627-4.1666-.15625-8.125l1.0938-.78125-2.0312-2.0312-1.4062 1.4062h-4.8438l2.5-4.0625 1.4062-1.0938-3.2812-1.875c-9e-6 1.7709-.57292 4.1146-1.7188 7.0312h-1.5625l-2.1875-1.0938c.10416 2.0834.15625 6.6667.15625 13.75-4e-6 7.0833-.05209 12.135-.15625 15.156z" fill="#c00" stroke="#c00" stroke-width="1px"/></g></g></svg>
