<svg viewBox="0 0 67 67" xmlns="http://www.w3.org/2000/svg"><g transform="translate(16.004 -7.8769)"><text x="10.8125" y="51.5312" fill="#000000" font-family="'DejaVu Serif'" font-style="italic"  text-anchor="end" style="line-height:0%" xml:space="preserve"><tspan x="16.542969" y="51.5312" font-size="18px" style="line-height:1"> </tspan></text><g transform="translate(-37.754 -2.3731)"><circle transform="translate(12.75,1.25)" cx="42.5" cy="42.5" r="32.5" fill="#fedaa4" stroke="#000" stroke-linecap="round" stroke-linejoin="bevel" stroke-width="2"/><circle transform="matrix(.89566 0 0 .89566 17.184 5.6844)" cx="42.5" cy="42.5" r="32.5" fill="none" stroke="#c00" stroke-linecap="round" stroke-linejoin="bevel" stroke-width="2.233"/><path d="m49.875 32.578v11.406c-1.5e-5 1.25-.0521 2.9167-.15625 5l2.1875-.46875v-.78125l16.875-.3125c-.83337 6.0417-1.4323 9.4792-1.7969 10.312-.36462.83333-.91149 1.224-1.6406 1.1719-.7292-.05208-2.5-.39062-5.3125-1.0156v.625c1.6666.625 2.7604 1.1458 3.2812 1.5625.5208.41666.93747 1.0937 1.25 2.0312 1.7708-.41667 3.0468-1.1979 3.8281-2.3438.78122-1.1458 1.5885-5 2.4219-11.562l1.4062-.9375-2.5-2.1875-1.4062 1.5625-7.6562.15625v-5.4688h9.0625l-2.8125-2.6562-1.875 1.875h-4.375v-5.3125h9.2188l-2.6562-2.6562-1.875 1.875h-4.6875v-5.1562h10.156l-2.8125-2.9688-2.1875 2.1875h-13.75l-2.3438-1.25c.10415 2.1875.15624 3.9584.15625 5.3125zm-1.25 18.438c-1.0417 2.6042-2.0052 4.2969-2.8906 5.0781-.88543.78125-1.1458 1.3542-.78125 1.7188.36457.36458.96353.46875 1.7969.3125.83332-.15625 1.4323-.75521 1.7969-1.7969.36457-1.0417.59894-2.7604.70312-5.1562zm3.2812.15625c.72915 2.6042 1.0937 4.5052 1.0938 5.7031-1.8e-5 1.1979.36456 1.6146 1.0938 1.25.72915-.36458 1.1458-.98958 1.25-1.875.10415-.88541-.83335-2.6823-2.8125-5.3906zm4.5312-.625c1.25 2.5 1.9531 4.3229 2.1094 5.4688.15623 1.1458.59893 1.4323 1.3281.85938.72914-.57292.98956-1.3802.78125-2.4219-.20836-1.0417-1.5104-2.4479-3.9062-4.2188zm5.3125-.9375c1.25 2.3958 2.0052 4.1927 2.2656 5.3906.26039 1.1979.72914 1.4063 1.4062.625.67705-.78125.8333-1.5885.46875-2.4219-.36461-.83333-1.5886-2.1354-3.6719-3.9062zm-9.8438-20.312h6.7188v5.1562h-6.7188zm0 5.9375h6.7188v5.3125h-6.7188zm0 6.0938h6.7188v5.4688l-6.7188.15625zm-8.2812 14.219v-17.656l1.25-.625-1.7188-1.25c1.7708-3.75 2.9687-6.25 3.5938-7.5l1.5625-.9375-3.4375-2.1875c-.83334 3.0209-1.9792 6.2761-3.4375 9.7656-1.4583 3.4896-3.1771 6.6927-5.1562 9.6094l.46875.3125c1.9792-2.1875 3.5937-4.2708 4.8438-6.25v14.844c-7e-6 2.2917-.05209 5-.15625 8.125l2.3438-1.25c-.10418-1.6667-.15626-3.3333-.15625-5z" fill="#c00" stroke="#c00" stroke-width="1px"/></g></g></svg>
