<svg viewBox="0 0 67 67" xmlns="http://www.w3.org/2000/svg"><g transform="translate(.88978 -6.4627)"><text x="10.8125" y="51.5312" fill="#000000" font-family="'DejaVu Serif'" font-style="italic"  text-anchor="end" style="line-height:0%" xml:space="preserve"><tspan x="16.542969" y="51.5312" font-size="18px" style="line-height:1"> </tspan></text><g transform="translate(-22.64 -3.7873)"><circle transform="translate(12.75,1.25)" cx="42.5" cy="42.5" r="32.5" fill="#fedaa4" stroke="#000" stroke-linecap="round" stroke-linejoin="bevel" stroke-width="2"/><circle transform="matrix(.89566 0 0 .89566 17.184 5.6844)" cx="42.5" cy="42.5" r="32.5" fill="none" stroke="#c00" stroke-linecap="round" stroke-linejoin="bevel" stroke-width="2.233"/><path d="m45.484 46.734h-8.4375l1.25 1.25c.9375-.31249 1.9792-.46874 3.125-.46875h32.031l-2.8125-2.8125-2.0312 2.0312h-7.1875v-9.6875h9.2188l-2.8125-2.8125-2.0312 2.0312h-18.125v-6.875c3.0208-.20831 6.4583-.49476 10.312-.85938 3.8541-.36456 6.6666-.59893 8.4375-.70312l-2.3438-2.9688c-1.7709.93753-3.9844 1.6927-6.6406 2.2656-2.6563.57294-5.8594 1.0677-9.6094 1.4844l-2.5-1.5625c.10416 3.2292.15624 6.25.15625 9.0625zm4.375 2.5c-.83335 1.1458-2.2136 2.526-4.1406 4.1406-1.9271 1.6146-4.8177 3.5677-8.6719 5.8594l.15625.625c4.4792-1.9792 9.0104-4.4792 13.594-7.5l1.875-.15625zm8.75 0-.3125.625c2.1875 1.4583 3.9843 2.8125 5.3906 4.0625 1.4062 1.25 2.7343 2.6823 3.9844 4.2969 1.25 1.6146 2.1354 1.3802 2.6562-.70312.5208-2.0833-3.3854-4.8437-11.719-8.2812zm-10.938-12.188h11.562v9.6875h-11.562z" fill="#c00" stroke="#c00" stroke-width="1px"/></g></g></svg>
