<svg viewBox="0 0 67 67" xmlns="http://www.w3.org/2000/svg"><g transform="translate(59.313 -11.518)"><text x="10.8125" y="51.5312" fill="#000000" font-family="'DejaVu Serif'" font-style="italic"  text-anchor="end" style="line-height:0%" xml:space="preserve"><tspan x="16.542969" y="51.5312" font-size="18px" style="line-height:1"> </tspan></text><g transform="translate(-81.063 1.2678)"><g stroke-linecap="round" stroke-linejoin="bevel"><circle transform="translate(12.75,1.25)" cx="42.5" cy="42.5" r="32.5" fill="#fedaa4" stroke="#000" stroke-width="2"/><circle transform="matrix(.89566 0 0 .89566 17.184 5.6844)" cx="42.5" cy="42.5" r="32.5" fill="none" stroke="#c00" stroke-width="2.233"/></g><path d="m51.203 37.578h6.5625v4.6875h-6.5625zm8.5938 0h7.0312v4.6875h-7.0312zm-8.5938 5.4688h6.5625v4.8438h-6.5625zm8.5938 0h7.0312v4.8438h-7.0312zm-2.3438 19.219 2.5-1.0938c-.10419-2.2917-.15628-4.0104-.15625-5.1562v-1.7188h12.344l-2.8125-2.9688-2.0312 2.1875h-7.5v-4.8438h7.0312v1.4062l2.1875-1.0938c-.1042-1.4583-.15628-2.8125-.15625-4.0625v-6.7188l1.25-1.0938-2.5-1.875-1.0938 1.5625h-6.7188v-4.375h11.094l-2.8125-2.8125-2.0312 2.0312h-6.25v-3.4375l1.4062-1.25-3.5938-1.5625c.10414 1.1459.15623 2.3438.15625 3.5938v2.6562h-10.312l1.25 1.25c.93748-.31248 1.9792-.46872 3.125-.46875h5.9375v4.375h-6.4062l-2.3438-1.0938c.10415 2.1875.15624 4.6094.15625 7.2656-1.5e-5 2.6563-.0521 5.2865-.15625 7.8906l2.1875-1.0938v-1.0938h6.5625v4.8438h-12.031l1.25 1.25c.93749-.3125 1.9792-.46875 3.125-.46875h7.6562v2.5c-2.3e-5.9375-.10419 2.7604-.3125 5.4688zm-12.969-24.062 1.25-.78125-1.875-1.0938c.83332-1.7708 2.0312-4.2187 3.5938-7.3438l1.7188-1.0938-3.4375-2.1875c-.93751 3.2292-2.1875 6.5886-3.75 10.078-1.5625 3.4896-3.4375 6.7448-5.625 9.7656l.46875.46875c1.875-1.9792 3.75-4.375 5.625-7.1875v16.562c-8e-6 2.2917-.05209 4.5312-.15625 6.7188l2.3438-1.25c-.10418-1.875-.15626-4.0625-.15625-6.5625z" fill="#c00" stroke="#c00" stroke-width="1px"/></g></g></svg>
