<?xml version="1.0"?>
<svg width="900" height="1200" xmlns="http://www.w3.org/2000/svg" xmlns:xlink="http://www.w3.org/1999/xlink">
	<title>&#26827;&#30436;</title>
	<rect width="900" height="1200" x="0" y="0" fill="#c52"/>
			<rect width="812" height="912" x="44" y="144" fill="#c52" stroke-width="4" stroke="#000"/>
			<rect width="800" height="900" x="50" y="150" fill="#c52" stroke-width="4" stroke="#000"/>
	<defs>
		<g id="mark">
			<polygon points="8,8 8,38 12,38 12,12 38,12 38,8" fill="#000"/>
		</g>
		<g id="mark2R">
			<use xlink:href="#mark"/>
			<use xlink:href="#mark" transform="rotate(-90,0,0)"/>
		</g>
		<g id="mark2L">
			<use xlink:href="#mark2R" transform="rotate(180,0,0)"/>
		</g>
		<g id="mark4">
			<use xlink:href="#mark2R"/>
			<use xlink:href="#mark2L"/>
		</g>
		<g id="diagonal2">
			<polygon id="diagonal" points="0,0 100,100" stroke="black" stroke-width="4" />
			<use xlink:href="#diagonal" transform="rotate(-90,100,100)"/>
		</g>
		<g id="lattice32">
			<g id="lattice16">
				<g id="lattice4">
					<rect id="lattice" width="100" height="100" fill="#c52" stroke-width="4" stroke="#000"/>
					<use xlink:href="#lattice" x="100" y="0"/>
					<use xlink:href="#lattice" x="200" y="0"/>
					<use xlink:href="#lattice" x="300" y="0"/>
				</g>
				<use xlink:href="#lattice4" x="0" y="100"/>
				<use xlink:href="#lattice4" x="0" y="200"/>
				<use xlink:href="#lattice4" x="0" y="300"/>
				<use xlink:href="#mark2R" x="0" y="300"/>
				<use xlink:href="#mark4" x="100" y="200"/>
				<use xlink:href="#mark4" x="200" y="300"/>
				<use xlink:href="#mark2L" x="400" y="300"/>
				<use xlink:href="#diagonal2" x="300" y="0"/>
			</g>
			<use xlink:href="#lattice16" x="400" y="0" transform="translate(1200,0) scale(-1,1)"/>
		</g>
		<g id="halfboard">
			<use xlink:href="#lattice32" x="50" y="6"/>
			<svg x="856" y="0">
			<g transform="rotate(180,20,106)">
<svg width="37.5" height="212.5" viewBox="0 0 150 850">
<g transform="translate(0,850) scale(0.1,-0.1)" fill="#000">
<path d="M565 8350 c-3 -5 -3 -20 0 -32 5 -20 -14 -142 -31 -200 -11 -36 35
-20 62 22 25 37 30 40 73 40 54 0 121 17 121 30 0 23 -51 43 -96 37 -37 -4
-44 -2 -40 10 19 48 17 61 -10 82 -28 22 -69 28 -79 11z"/>
<path d="M344 8286 c-3 -8 2 -26 11 -39 16 -25 16 -25 -17 -35 -18 -6 -52 -16
-75 -22 -53 -13 -56 -34 -9 -57 32 -15 37 -15 75 1 58 22 71 20 82 -14 12 -33
42 -41 57 -15 4 9 4 49 -2 93 -10 66 -14 78 -36 89 -34 17 -79 16 -86 -1z"/>
<path d="M985 8204 c-33 -7 -97 -16 -142 -20 -46 -4 -83 -10 -83 -14 0 -3 5
-32 11 -64 7 -41 7 -99 0 -198 -9 -117 -8 -145 4 -175 12 -28 19 -34 36 -30
18 5 20 2 14 -21 -3 -15 -18 -47 -34 -72 -20 -33 -33 -44 -47 -41 -10 3 -47 4
-81 4 -44 0 -63 3 -63 12 0 16 22 25 60 25 34 0 80 16 80 28 0 15 -50 32 -95
32 -33 0 -45 4 -45 15 0 11 12 15 43 16 59 1 91 12 95 31 4 21 -66 42 -109 33
-16 -4 -29 -3 -29 2 1 20 19 30 75 41 71 15 86 26 62 49 -17 18 -66 22 -107
11 -22 -6 -27 -3 -37 21 -8 23 -23 34 -62 48 -47 16 -51 20 -46 43 4 14 13 32
21 41 13 15 13 19 -1 33 -26 25 -59 29 -109 12 -26 -9 -67 -16 -91 -16 -48 0
-67 -16 -41 -35 9 -7 23 -36 32 -64 16 -55 35 -71 59 -51 13 11 15 8 15 -15 0
-41 -52 -116 -136 -194 -41 -38 -70 -72 -64 -76 12 -7 91 27 128 55 l26 21 8
-22 c5 -13 4 -74 -2 -139 -10 -100 -9 -122 4 -153 28 -69 77 -38 80 49 l1 42
91 16 c49 9 115 16 145 16 l54 -1 -47 -44 c-27 -24 -48 -46 -48 -49 0 -12 53
-5 88 11 88 41 243 249 229 305 -6 22 8 24 17 2 3 -8 3 -74 0 -147 -6 -151 4
-185 66 -222 55 -31 189 -29 255 6 62 31 76 62 52 116 -9 21 -21 57 -27 81 -6
24 -17 42 -25 42 -15 0 -20 -14 -30 -82 -10 -73 -30 -91 -107 -96 -99 -6 -108
2 -108 96 0 71 19 185 34 199 3 3 12 0 21 -7 8 -7 22 -10 30 -6 34 13 43 66
46 271 l4 200 -40 22 c-45 26 -48 26 -130 7z m59 -76 c13 -49 8 -55 -46 -62
-29 -3 -74 -9 -100 -12 l-48 -7 0 41 0 40 63 10 c106 16 124 15 131 -10z
m-624 -128 c0 -21 -40 -38 -59 -25 -19 11 -12 33 12 38 42 8 47 7 47 -13z
m630 -24 c0 -30 -3 -33 -27 -33 -16 1 -61 -3 -100 -7 l-73 -9 0 30 c0 30 0 30
78 40 128 16 122 18 122 -21z m-555 -86 c21 -41 19 -50 -14 -50 -24 0 -28 3
-24 20 4 14 -4 25 -28 39 l-34 21 42 0 c37 0 44 -4 58 -30z m555 -43 c0 -31
-2 -33 -32 -33 -18 0 -63 -3 -100 -8 l-68 -8 0 36 c0 34 1 35 43 39 23 2 68 4
100 5 l57 2 0 -33z m-530 -77 c0 -20 -9 -24 -87 -34 -46 -7 -57 1 -39 26 8 11
30 18 62 21 27 2 52 4 57 5 4 1 7 -7 7 -18z m0 -99 c0 -15 -10 -19 -52 -24
-58 -7 -61 -6 -52 16 4 11 21 17 52 20 26 2 48 4 50 5 1 1 2 -6 2 -17z m0
-100 c0 -20 -9 -25 -72 -36 -37 -6 -38 -5 -38 25 0 30 0 30 55 30 48 0 55 -3
55 -19z"/>
<path d="M645 8112 c-16 -8 -51 -17 -77 -20 -45 -4 -63 -21 -39 -36 5 -4 12
-28 16 -56 9 -62 24 -76 66 -61 18 6 51 11 75 11 45 0 63 13 46 33 -7 8 -4 24
9 51 24 50 24 53 -3 70 -37 22 -61 25 -93 8z m13 -79 c-2 -20 -9 -29 -25 -31
-19 -3 -23 1 -23 22 0 22 10 30 43 35 5 0 7 -11 5 -26z"/>
<path d="M951 7171 c-9 -6 -12 -18 -7 -37 14 -56 28 -165 23 -178 -4 -10 -136
-41 -143 -33 -1 1 2 26 8 56 8 44 7 56 -7 71 -19 20 -98 45 -114 35 -13 -8
-14 -40 -2 -63 5 -9 11 -40 13 -68 l5 -52 -48 -6 c-27 -4 -51 -11 -54 -15 -8
-15 23 -39 65 -52 l40 -12 0 -172 0 -172 -46 -7 c-26 -3 -66 -6 -90 -6 -49 0
-63 -13 -40 -38 31 -35 79 -44 143 -28 31 8 58 14 59 13 0 -1 -3 -17 -8 -36
-6 -23 -39 -64 -99 -123 -49 -49 -89 -94 -89 -99 0 -17 35 -9 93 24 81 45 217
158 217 180 0 12 -14 24 -40 35 -22 9 -40 20 -40 23 0 10 143 21 329 25 179 3
205 10 178 43 -7 8 -31 23 -55 33 -39 18 -50 18 -113 7 -38 -7 -71 -10 -73 -8
-2 2 -1 86 1 186 6 204 1 192 88 193 49 0 70 12 62 35 -9 23 -88 56 -116 48
-24 -6 -24 -5 -17 47 4 29 11 61 16 70 14 26 -13 56 -67 74 -54 19 -54 18 -72
7z m19 -345 l0 -43 -58 -6 c-32 -4 -66 -9 -75 -13 -14 -5 -17 1 -17 39 l0 45
53 10 c97 18 97 18 97 -32z m-2 -142 c-3 -34 -6 -37 -38 -39 -19 -1 -54 -5
-77 -9 l-43 -8 0 36 c0 32 3 36 33 40 132 22 129 22 125 -20z m-8 -144 c0 -44
-2 -46 -97 -53 l-53 -4 0 43 c0 48 4 49 103 53 l47 1 0 -40z"/>
<path d="M406 7101 c-4 -5 1 -35 9 -67 8 -32 15 -93 15 -135 l0 -77 -62 -10
c-35 -6 -82 -14 -106 -17 -32 -5 -42 -11 -40 -23 6 -30 48 -43 122 -36 l68 7
-7 -24 c-18 -60 -100 -201 -160 -276 -36 -45 -65 -84 -65 -87 0 -3 11 -6 24
-6 33 0 114 68 166 139 25 34 46 61 49 61 6 0 -9 -158 -21 -222 -12 -67 -5
-116 23 -152 16 -20 24 -24 39 -16 32 17 40 67 40 261 0 104 3 189 8 189 4 0
17 -16 30 -35 34 -53 82 -43 82 17 0 34 -37 72 -86 90 -34 12 -36 19 -19 74 2
6 18 14 37 17 53 9 88 25 88 42 0 22 -65 48 -100 40 l-29 -6 6 58 c3 32 9 74
13 94 9 46 -1 64 -50 89 -43 22 -66 25 -74 11z"/>
<path d="M940 6389 c0 -9 27 -44 152 -192 31 -38 46 -47 66 -45 34 4 46 27 38
73 -10 51 -60 98 -151 141 -71 35 -105 42 -105 23z"/>
<path d="M940 5845 c-41 -7 -192 -27 -335 -45 -143 -17 -270 -36 -282 -41 -34
-13 -28 -28 22 -50 l45 -20 140 21 c77 12 148 20 159 18 18 -3 18 -6 6 -42
-39 -111 -238 -323 -417 -445 -90 -61 -43 -71 72 -15 98 47 194 119 279 210
38 41 72 74 77 74 13 0 -4 -292 -21 -369 -16 -70 -16 -78 -1 -127 19 -61 40
-83 64 -67 30 18 39 74 46 273 4 106 9 196 11 198 5 6 88 -56 165 -122 65 -57
147 -106 175 -106 30 0 45 19 45 56 0 76 -86 139 -277 200 -111 36 -112 37
-106 65 3 19 -2 39 -17 63 l-21 36 32 44 c24 34 30 51 25 70 -6 25 -5 26 41
27 138 2 294 16 305 27 26 26 -60 83 -124 81 -18 -1 -67 -7 -108 -14z"/>
<path d="M390 4675 c0 -9 16 -47 35 -85 l35 -70 -22 -5 c-13 -3 -70 -14 -128
-23 -84 -14 -105 -20 -108 -35 -3 -13 9 -23 41 -37 l45 -20 100 25 c55 14 141
31 192 39 50 7 93 16 96 18 10 10 -8 36 -32 47 -14 6 -40 11 -59 11 -31 0 -35
3 -35 25 0 43 -27 82 -73 104 -51 25 -87 27 -87 6z"/>
<path d="M1010 4679 c-19 -6 -102 -23 -185 -38 -116 -22 -151 -31 -153 -44 -6
-28 64 -50 122 -39 l48 10 -6 -46 c-3 -24 -6 -53 -6 -63 0 -18 -12 -22 -103
-34 -42 -6 -48 -9 -45 -28 3 -20 10 -22 66 -25 l64 -3 -7 -42 c-12 -68 -15
-71 -112 -83 -73 -9 -93 -8 -117 4 -30 15 -61 13 -161 -8 -80 -17 -94 -29 -65
-52 28 -23 53 -22 161 2 86 18 87 18 127 -1 38 -19 44 -19 153 -5 142 19 334
36 417 36 108 0 128 31 46 70 -36 18 -53 20 -100 14 -56 -7 -56 -6 -49 17 4
13 16 42 26 63 11 22 19 43 19 47 0 5 -21 20 -46 35 l-47 28 -61 -17 c-33 -9
-62 -14 -64 -12 -2 2 1 20 8 40 7 20 9 47 6 60 -6 23 -4 23 82 29 140 10 168
26 113 66 -37 26 -84 33 -131 19z m10 -290 c0 -11 -5 -40 -11 -64 -11 -44 -11
-44 -65 -51 -30 -3 -58 -4 -61 0 -7 7 16 96 29 113 8 10 32 16 91 21 11 1 17
-5 17 -19z"/>
<path d="M416 4359 c-82 -22 -93 -30 -71 -53 22 -21 73 -20 164 4 81 21 102
33 84 51 -19 19 -104 18 -177 -2z"/>
<path d="M480 4118 c-34 -16 -63 -21 -117 -20 -42 0 -73 -4 -73 -9 0 -5 9 -22
20 -37 11 -15 26 -57 34 -95 18 -90 45 -119 75 -83 7 9 43 17 91 21 57 5 80
11 80 20 0 8 -4 16 -9 20 -11 6 11 76 34 112 21 31 19 50 -8 68 -38 25 -78 26
-127 3z m26 -105 c-7 -50 -17 -63 -54 -63 -24 0 -27 5 -36 57 -5 30 -3 33 27
42 66 19 70 16 63 -36z"/>
<path d="M925 4118 c-98 -14 -140 -16 -170 -9 -31 8 -43 7 -54 -4 -13 -12 -12
-17 3 -34 11 -12 24 -59 36 -126 20 -121 36 -149 73 -126 13 9 77 19 159 25
75 6 140 14 144 18 4 4 1 14 -6 23 -11 13 -10 23 5 58 10 23 29 56 42 74 13
17 23 39 23 48 0 18 -86 76 -109 74 -9 -1 -74 -10 -146 -21z m102 -127 l-9
-68 -92 -10 c-50 -5 -93 -8 -96 -6 -2 2 -6 33 -8 68 l-4 64 38 6 c22 3 46 8
54 10 8 1 40 3 71 4 l55 1 -9 -69z"/>
<path d="M705 3610 c-3 -5 -2 -26 4 -45 14 -52 3 -104 -23 -110 -11 -2 -79
-12 -151 -20 -72 -9 -134 -21 -140 -26 -12 -12 26 -46 60 -55 13 -3 68 1 123
10 55 9 104 16 109 16 9 0 0 -87 -10 -96 -7 -7 -105 -8 -132 -1 -46 11 -62 -4
-48 -45 7 -18 15 -121 19 -229 l7 -196 -24 -6 c-13 -4 -65 -7 -115 -7 -65 0
-96 -4 -110 -15 -19 -15 -19 -15 4 -35 45 -38 93 -45 179 -27 136 29 242 38
503 43 140 3 265 7 278 10 30 6 28 28 -4 53 -46 36 -96 46 -177 33 -39 -6 -73
-9 -75 -8 -5 5 17 357 24 387 7 33 -23 64 -77 80 -28 9 -49 8 -95 -4 -32 -8
-60 -13 -62 -12 -8 7 20 84 33 89 8 3 77 8 155 12 87 4 147 12 158 20 16 12
16 14 -6 37 -39 41 -77 46 -193 27 -57 -10 -105 -17 -107 -15 -2 2 6 21 17 43
l20 39 -22 20 c-44 40 -107 57 -122 33z m173 -388 c3 -20 0 -22 -40 -21 -24 0
-76 -6 -116 -15 -96 -21 -102 -21 -102 7 0 22 6 25 98 40 129 20 156 18 160
-11z m2 -112 c0 -28 -3 -30 -37 -30 -21 0 -73 -7 -116 -15 -107 -20 -117 -20
-117 8 0 23 25 30 263 66 4 0 7 -12 7 -29z m0 -122 c0 -21 -5 -23 -47 -24 -27
0 -87 -7 -135 -16 l-88 -15 0 29 c0 23 4 28 18 25 9 -3 55 0 102 8 134 20 150
19 150 -7z m0 -102 c0 -8 3 -21 6 -29 4 -12 -12 -16 -83 -21 -48 -4 -112 -9
-140 -13 -51 -5 -53 -4 -53 19 0 24 4 25 113 40 150 20 157 20 157 4z"/>
<path d="M837 2743 c-3 -4 41 -57 97 -116 104 -108 134 -125 164 -95 22 22 14
75 -18 111 -46 53 -226 127 -243 100z"/>
<path d="M546 2697 c-13 -33 -100 -106 -178 -151 -21 -11 -38 -27 -38 -35 0
-34 128 13 313 115 61 34 62 58 5 84 -64 29 -85 26 -102 -13z"/>
<path d="M910 2339 c-36 -15 -292 -67 -372 -75 -77 -8 -101 -25 -74 -52 13
-13 31 -16 75 -14 53 2 59 0 65 -20 6 -23 8 -88 3 -88 -1 0 -57 -7 -122 -15
-66 -8 -141 -15 -167 -15 -25 0 -53 -3 -62 -6 -30 -11 -17 -42 27 -69 43 -24
45 -25 96 -9 53 15 212 46 217 41 2 -1 -4 -30 -13 -64 l-15 -62 -47 -6 c-134
-18 -146 -20 -149 -36 -5 -25 49 -42 113 -37 l54 5 -32 -61 c-44 -83 -131
-173 -238 -246 -101 -69 -108 -93 -22 -70 81 22 159 67 227 130 35 34 67 57
69 53 3 -5 11 -56 17 -113 16 -137 45 -184 83 -130 12 17 36 21 202 35 104 9
192 18 194 21 3 3 0 13 -7 24 -9 15 -7 34 14 97 13 43 34 90 44 105 l20 27
-42 36 c-24 20 -52 38 -64 41 -12 3 -68 -6 -125 -20 -107 -27 -275 -53 -284
-44 -11 11 50 127 70 132 11 3 82 9 158 12 144 7 183 18 155 45 -13 12 -13 21
2 80 10 37 21 72 25 79 6 9 37 10 124 6 65 -4 122 -3 129 2 24 16 8 46 -37 71
-42 23 -47 24 -119 12 -41 -6 -77 -9 -79 -7 -2 2 5 31 17 65 11 33 20 67 20
74 0 17 -68 64 -102 71 -13 3 -34 0 -48 -5z m5 -146 c-4 -32 -10 -61 -14 -65
-6 -7 -173 -29 -179 -23 -2 1 3 19 12 38 13 33 13 37 -5 53 -10 9 -17 19 -14
22 9 9 120 30 164 31 l43 1 -7 -57z m-25 -151 c0 -5 -7 -31 -15 -59 l-15 -51
-73 -11 c-39 -7 -82 -13 -95 -15 -17 -2 -21 1 -18 13 3 9 10 37 17 63 13 53 5
50 182 66 9 1 17 -2 17 -6z m53 -369 c5 -8 -19 -162 -26 -169 -6 -6 -258 -36
-263 -31 -6 5 -24 161 -19 165 1 2 49 11 106 21 112 20 195 26 202 14z"/>
<path d="M850 1134 c-65 -21 -263 -54 -323 -54 -29 0 -58 -4 -66 -9 -21 -13
-6 -39 34 -58 34 -16 41 -16 183 11 81 15 158 29 171 32 l24 5 -18 -28 c-10
-15 -40 -56 -67 -90 -45 -57 -52 -62 -78 -56 -39 7 -48 -16 -21 -54 12 -15 24
-48 27 -73 l6 -46 -163 -17 c-90 -9 -194 -17 -231 -17 -36 0 -73 -3 -82 -6
-27 -10 -18 -41 17 -57 59 -27 74 -28 183 -8 60 10 148 22 197 26 l87 7 0 -63
c0 -87 -18 -237 -31 -261 -10 -18 -17 -19 -71 -13 -38 5 -59 4 -57 -2 9 -22
138 -153 151 -153 20 0 54 38 75 85 14 32 18 76 21 228 l4 187 213 0 c177 0
215 3 225 15 16 19 1 39 -51 66 -46 23 -71 23 -214 4 -60 -8 -126 -15 -146
-15 l-36 0 -9 66 -10 65 75 60 c42 34 99 75 128 92 74 44 69 69 -22 115 -60
29 -76 31 -125 16z"/>
</g>
</svg>
			</g>
			</svg>
			<svg x="0" y="0">
			<g transform="rotate(180,20,106)">
			<svg width="37.5" height="212.5" viewBox="0 0 150 850">
<g transform="translate(0,850) scale(0.1,-0.1)" fill="#000">
<path d="M482 8337 c-10 -11 -9 -20 3 -43 9 -18 15 -56 15 -101 l0 -72 -37
-10 c-21 -5 -55 -12 -75 -15 -45 -8 -56 -22 -34 -44 12 -13 33 -16 81 -15 l65
2 0 -44 c0 -26 -5 -45 -13 -48 -7 -2 -74 -15 -149 -27 -160 -27 -170 -31 -144
-59 36 -40 73 -43 171 -16 145 40 145 41 145 -86 l0 -80 -30 16 c-32 17 -36
25 -19 42 26 26 -28 83 -79 83 -15 0 -21 -9 -25 -42 -7 -55 -65 -169 -126
-250 -28 -37 -51 -70 -51 -73 0 -14 35 -2 74 24 49 34 101 90 134 144 13 20
28 37 34 37 6 0 83 -48 172 -107 89 -59 203 -129 254 -155 111 -57 146 -60
320 -24 126 26 151 39 108 56 -15 5 -36 10 -46 10 -40 0 -298 52 -360 72 -36
12 -113 44 -172 71 l-108 50 0 52 0 52 69 7 c38 4 76 13 85 19 16 12 16 14 -4
32 -22 20 -67 25 -113 12 -27 -7 -28 -7 -25 33 1 25 -3 44 -11 49 -7 5 27 13
81 21 51 7 98 15 105 17 10 4 13 -19 13 -98 0 -126 18 -173 81 -208 33 -19 57
-24 118 -24 99 -1 164 18 208 59 31 30 33 35 22 56 -7 13 -20 48 -30 78 -9 30
-23 55 -30 55 -7 0 -17 -22 -24 -50 -22 -98 -39 -110 -157 -110 -95 0 -112 18
-116 124 l-4 78 76 12 c42 6 90 11 106 11 32 0 48 16 32 32 -11 11 7 78 40
144 21 42 21 44 3 63 -35 40 -75 44 -143 16 -64 -26 -101 -30 -164 -19 l-37 6
6 -96 6 -96 -32 16 c-28 14 -42 15 -89 5 -30 -6 -59 -11 -64 -11 -4 0 -8 22
-8 49 l0 50 58 11 c111 23 128 40 65 67 -23 9 -52 13 -77 10 l-39 -5 6 79 c5
75 4 81 -18 95 -35 23 -89 29 -103 11z m517 -269 c-3 -81 -10 -92 -69 -105
-30 -6 -56 -10 -58 -8 -3 2 0 30 4 62 8 55 11 59 44 70 19 7 45 12 58 12 19 1
22 -4 21 -31z"/>
<path d="M795 7160 c-36 -38 -164 -104 -268 -139 -44 -15 -83 -33 -85 -39 -6
-20 47 -25 121 -12 122 22 121 22 131 -32 5 -27 7 -50 4 -53 -5 -6 -206 -34
-240 -35 -11 0 -18 -8 -18 -20 0 -33 43 -43 163 -35 l107 6 0 -50 c0 -44 -3
-51 -20 -51 -11 0 -86 -7 -167 -15 -82 -8 -170 -16 -198 -17 -69 -4 -74 -29
-11 -60 l46 -22 103 17 c56 10 135 21 175 24 l72 6 0 -94 c-1 -94 -15 -237
-25 -248 -3 -2 -29 0 -58 6 -28 6 -55 8 -59 4 -10 -8 128 -151 146 -151 21 0
46 35 63 87 10 32 17 105 20 226 l5 177 192 0 c105 0 198 5 206 10 23 14 2 41
-54 69 -44 22 -52 23 -114 13 -37 -6 -104 -14 -148 -18 l-82 -7 -3 55 -4 55
80 13 c93 14 148 34 143 52 -2 7 -21 21 -41 31 -35 18 -41 18 -100 3 -88 -22
-87 -22 -87 30 0 25 -4 54 -10 64 -9 16 -1 22 68 48 83 32 96 50 65 84 -18 20
-65 48 -81 48 -4 0 -21 -13 -37 -30z"/>
<path d="M566 5978 c-3 -7 -9 -35 -16 -62 -15 -66 -71 -179 -120 -244 -38 -50
-44 -80 -15 -68 13 5 16 -3 34 -86 8 -38 8 -38 -23 -38 -50 0 -77 -11 -74 -29
4 -19 52 -44 90 -45 28 -1 30 -6 41 -106 2 -12 -19 -16 -111 -21 -147 -8 -170
-29 -76 -70 43 -20 45 -19 151 1 153 29 307 40 549 40 166 0 214 3 230 14 19
14 19 15 -4 39 -36 38 -89 51 -167 40 l-67 -10 7 46 c13 89 13 90 63 96 26 4
54 7 62 8 31 4 15 40 -27 63 -24 12 -48 24 -54 26 -9 3 -9 10 0 26 10 19 8 25
-15 47 -29 27 -61 39 -91 33 -16 -3 -18 -12 -14 -66 2 -47 0 -62 -10 -62 -8 0
-24 -3 -36 -6 -22 -6 -23 -4 -17 38 8 54 -6 68 -73 76 l-46 5 8 -34 c4 -19 8
-50 9 -69 1 -31 -2 -35 -26 -38 -26 -3 -27 -1 -30 45 -3 46 -5 49 -40 60 -50
17 -72 8 -64 -26 4 -14 9 -43 13 -63 5 -37 5 -38 -26 -38 -30 0 -31 1 -31 44
0 50 -13 64 -64 73 l-36 6 45 34 c25 19 45 38 45 42 0 5 35 11 78 14 101 8
390 52 399 61 14 14 -15 41 -60 58 -44 16 -49 16 -119 -3 -106 -30 -240 -58
-236 -51 10 21 60 110 70 124 15 21 -11 54 -59 74 -40 17 -43 17 -47 2z m350
-530 c-3 -13 -6 -47 -6 -75 0 -52 0 -53 -30 -53 l-30 0 0 69 c0 64 2 70 23 74
46 9 50 8 43 -15z m-152 -14 c3 -9 6 -40 6 -70 0 -53 -1 -54 -29 -54 -27 0
-29 3 -35 53 -10 85 -9 87 23 87 17 0 31 -6 35 -16z m-140 -50 c10 -79 9 -84
-23 -84 -33 0 -41 14 -41 74 0 49 5 56 35 56 19 0 23 -7 29 -46z"/>
<path d="M792 5188 c-20 -20 52 -188 81 -188 55 0 72 99 26 145 -33 33 -93 57
-107 43z"/>
<path d="M980 5191 c0 -4 8 -19 18 -32 10 -13 35 -51 55 -85 20 -33 45 -68 56
-78 19 -18 22 -18 46 -2 35 23 35 83 -1 126 -44 51 -174 105 -174 71z"/>
<path d="M574 5176 c-11 -28 48 -181 73 -191 29 -10 63 22 63 60 0 50 -15 80
-52 108 -45 34 -77 42 -84 23z"/>
<path d="M394 5148 c-9 -17 -29 -49 -45 -71 -34 -47 -36 -76 -10 -108 16 -20
23 -22 47 -14 31 11 70 70 80 121 7 37 -19 104 -40 104 -9 0 -23 -14 -32 -32z"/>
<path d="M979 4625 c-36 -8 -184 -25 -328 -40 -209 -21 -269 -23 -303 -15 -33
9 -43 9 -55 -3 -13 -13 -12 -20 6 -55 31 -60 39 -108 60 -359 11 -126 25 -241
32 -255 20 -45 52 -47 69 -4 8 22 16 23 187 34 98 7 203 12 234 12 l57 0 18
-51 c24 -65 37 -76 70 -59 58 32 95 151 114 375 13 146 31 254 51 303 17 41 9
56 -55 100 -53 35 -60 36 -157 17z m67 -217 c-7 -122 -40 -385 -50 -395 -2 -3
-20 0 -40 6 -26 7 -78 6 -174 -4 -75 -7 -178 -16 -227 -20 l-91 -7 -13 169
c-7 92 -16 205 -19 250 l-7 82 50 7 c155 21 383 42 474 43 l104 1 -7 -132z"/>
<path d="M745 4413 c-29 -9 -86 -15 -137 -15 -91 0 -102 -6 -73 -38 9 -10 22
-57 30 -106 9 -49 20 -99 25 -111 11 -27 45 -30 58 -7 7 12 35 19 108 27 105
10 124 18 106 40 -9 11 -7 28 8 73 11 32 25 63 30 68 17 17 11 31 -20 54 -40
30 -75 33 -135 15z m31 -115 c-3 -34 -7 -62 -9 -64 -1 -1 -27 -5 -58 -9 l-56
-7 -7 32 c-3 18 -6 45 -6 61 0 25 5 29 43 37 23 6 55 10 71 11 l29 1 -7 -62z"/>
<path d="M624 3526 c-4 -10 1 -40 10 -68 16 -50 21 -169 10 -226 l-6 -30 -127
-16 c-156 -21 -171 -25 -171 -42 0 -7 19 -23 42 -35 42 -22 43 -22 136 -4 51
9 96 15 99 11 9 -9 -35 -125 -69 -181 -50 -83 -125 -161 -224 -236 -52 -39
-94 -77 -94 -85 0 -19 9 -18 84 10 169 64 288 179 372 362 l36 77 47 -84 c102
-182 206 -322 253 -338 40 -14 128 -14 204 0 100 18 96 28 -36 92 -109 52
-205 121 -275 198 -69 77 -159 198 -152 206 8 8 147 22 228 22 40 1 73 7 85
15 19 14 18 15 -5 40 -42 44 -86 51 -193 31 -51 -9 -100 -19 -108 -21 -15 -4
-14 41 2 241 3 26 -2 33 -34 48 -57 28 -106 33 -114 13z"/>
<path d="M674 2345 c-4 -9 -1 -33 5 -53 13 -40 28 -232 18 -232 -10 0 -321
-50 -344 -55 -37 -8 -27 -35 20 -55 44 -19 44 -19 168 5 68 13 130 25 138 25
11 0 12 -13 7 -62 -8 -80 -24 -138 -37 -138 -6 0 -31 17 -55 39 -24 21 -62 43
-83 49 -42 10 -88 6 -97 -10 -9 -14 24 -46 55 -53 29 -6 118 -70 134 -97 25
-38 -92 -138 -260 -222 -51 -25 -93 -51 -93 -56 0 -18 87 -10 160 14 91 31
167 77 227 138 l47 48 101 -103 c55 -57 122 -116 149 -132 43 -25 57 -28 134
-27 121 1 212 23 212 52 0 4 -62 29 -137 55 -172 59 -248 97 -341 170 -55 43
-72 61 -66 74 24 56 44 126 54 197 l12 81 66 7 c37 3 90 6 119 6 99 0 130 30
73 70 -42 30 -87 35 -168 16 -39 -9 -74 -16 -78 -16 -5 0 0 139 8 209 4 32
-34 59 -94 67 -40 6 -49 4 -54 -11z"/>
<path d="M624 1176 c-4 -9 0 -38 7 -64 7 -26 13 -81 14 -122 l0 -75 -90 -12
c-49 -6 -93 -12 -97 -12 -18 -2 -6 -32 17 -47 20 -13 42 -16 101 -12 l75 5 -6
-76 c-4 -42 -9 -78 -11 -80 -1 -2 -60 -10 -131 -17 -70 -8 -138 -17 -150 -19
-33 -8 -28 -32 9 -51 32 -17 84 -16 211 2 34 5 47 3 47 -5 0 -32 -73 -165
-114 -209 -48 -51 -147 -122 -224 -161 -68 -34 -54 -57 26 -41 146 27 289 142
358 287 21 45 42 82 45 82 4 1 25 -30 48 -68 57 -96 180 -260 221 -295 l34
-28 127 4 c88 2 132 8 143 17 22 19 17 22 -94 71 -52 23 -125 61 -161 85 -63
43 -211 187 -256 251 l-22 31 91 7 c50 3 119 6 154 6 120 0 148 34 64 77 l-45
23 -139 -20 c-76 -12 -140 -19 -141 -18 -3 4 13 150 18 154 2 2 41 11 86 19
140 27 156 39 99 76 -33 20 -56 21 -151 3 l-38 -7 5 39 c3 22 8 69 11 106 5
66 5 67 -24 82 -16 9 -47 18 -70 22 -33 5 -42 3 -47 -10z"/>
</g>
</svg>
			</g>
			</svg>
		</g>
	</defs>
	<use xlink:href="#halfboard" x="0" y="144"/>
	<use xlink:href="#halfboard" x="0" y="144" transform="rotate(180,450,600)"/>
<svg xmlns="http://www.w3.org/2000/svg" width="900" height="75" viewBox="0 0 900 75">
<g transform="translate(0,75) scale(0.1,-0.1)" fill="#000">
<path d="M400 635 c0 -11 11 -15 38 -15 21 0 43 -5 50 -12 9 -9 12 -79 12
-255 0 -134 4 -243 8 -243 4 0 25 9 47 20 22 11 54 20 72 20 23 0 33 5 33 15
0 11 -12 15 -50 15 l-50 0 0 208 c0 148 3 211 12 220 7 7 29 12 50 12 27 0 38
4 38 15 0 13 -21 15 -130 15 -109 0 -130 -2 -130 -15z"/>
<path d="M1376 638 c-3 -7 -7 -39 -9 -70 -7 -70 12 -79 36 -18 l15 40 116 0
c64 0 116 -4 116 -8 0 -4 -13 -29 -29 -54 -21 -32 -57 -65 -118 -107 -101 -69
-124 -96 -131 -157 -9 -86 26 -135 111 -155 67 -15 124 0 166 43 55 56 54 150
-2 156 -37 5 -46 -22 -17 -53 52 -55 -11 -111 -118 -106 -13 1 -37 14 -53 30
-56 57 -31 130 77 219 33 27 77 69 98 93 35 41 72 132 60 150 -9 15 -314 11
-318 -3z"/>
<path d="M2450 628 c-60 -30 -82 -74 -77 -148 4 -48 8 -58 44 -90 l40 -35 -28
-23 c-16 -13 -34 -40 -40 -61 -39 -132 139 -224 247 -129 27 24 34 37 34 68 0
42 -18 63 -51 58 -31 -4 -35 -23 -10 -45 29 -25 26 -50 -9 -68 -78 -41 -150
-2 -150 80 0 38 5 52 29 76 17 17 40 29 55 29 19 0 26 5 26 20 0 16 -7 20 -33
20 -43 0 -73 22 -87 66 -35 106 41 195 142 165 49 -15 70 -52 45 -79 -23 -26
-21 -49 5 -58 16 -5 27 -1 40 16 23 28 23 54 1 92 -39 66 -142 87 -223 46z"/>
<path d="M3350 637 c0 -8 15 -18 33 -23 29 -9 32 -14 35 -52 l3 -42 -35 0
c-25 0 -36 -4 -36 -15 0 -10 11 -15 35 -15 l35 0 0 -190 0 -190 23 0 c17 0 47
38 145 185 67 102 122 194 122 205 0 19 -7 20 -116 20 l-115 0 3 43 c3 41 4
42 46 51 73 17 42 31 -71 34 -86 2 -107 0 -107 -11z m239 -284 c-50 -76 -95
-142 -100 -148 -5 -5 -9 54 -9 138 l0 147 100 0 100 0 -91 -137z"/>
<path d="M4455 628 c-80 -46 -110 -168 -62 -258 41 -79 138 -104 211 -55 l36
24 0 -89 0 -90 -125 0 c-69 0 -125 -4 -125 -9 0 -5 -3 -16 -6 -25 -5 -14 11
-16 140 -16 l146 0 0 140 c0 158 -4 165 -67 110 -37 -33 -94 -40 -125 -16 -23
17 -48 77 -48 113 0 48 21 105 47 129 35 32 113 34 144 3 16 -16 18 -23 9 -34
-17 -20 -8 -59 14 -63 23 -5 46 23 46 55 0 13 -15 40 -34 60 -31 34 -38 37
-97 40 -53 3 -71 0 -104 -19z"/>
<path d="M5462 633 c-111 -54 -124 -249 -21 -305 42 -22 119 -23 161 -2 l31
16 -6 -55 c-5 -56 -24 -103 -52 -131 -20 -20 -85 -21 -111 -2 -16 13 -17 18
-6 36 18 29 6 60 -22 60 -50 0 -61 -51 -20 -99 45 -54 136 -61 202 -16 79 56
110 319 50 427 -44 81 -128 110 -206 71z m129 -39 c24 -22 37 -65 41 -143 4
-62 4 -64 -26 -82 -47 -29 -123 -22 -149 12 -24 33 -25 134 -2 178 31 61 91
76 136 35z"/>
<path d="M6522 638 c-7 -7 -12 -42 -12 -87 0 -139 -43 -261 -121 -346 -25 -27
-39 -52 -39 -69 l0 -26 173 2 172 3 3 68 c2 55 0 67 -13 67 -9 0 -15 -9 -15
-23 0 -13 -6 -32 -14 -43 -13 -16 -29 -19 -130 -22 -64 -2 -116 -1 -116 3 0 3
17 32 39 63 76 113 113 207 126 323 10 79 -17 123 -53 87z"/>
<path d="M7445 631 c-22 -12 -50 -36 -62 -54 -42 -62 -22 -160 40 -197 l34
-20 -38 -39 c-33 -33 -39 -45 -39 -81 0 -84 59 -134 157 -133 70 0 116 30 138
88 21 54 9 102 -37 140 -29 25 -30 26 -12 40 11 8 22 15 27 15 18 0 47 68 47
108 0 89 -54 142 -153 149 -49 3 -70 0 -102 -16z m129 -21 c59 -22 84 -116 46
-177 -36 -60 -69 -64 -142 -16 -116 77 -33 242 96 193z m33 -332 c27 -30 22
-86 -11 -114 -64 -56 -156 -16 -156 66 0 51 12 75 48 94 24 13 31 12 65 -7 20
-11 45 -29 54 -39z"/>
<path d="M8473 625 c-28 -17 -49 -40 -65 -73 -21 -43 -23 -60 -23 -192 0 -128
2 -149 20 -180 43 -72 145 -97 217 -52 96 59 105 237 16 292 -44 27 -122 27
-165 0 l-33 -20 0 25 c0 51 23 127 46 155 29 33 81 48 113 31 22 -12 28 -40
11 -57 -6 -6 -8 -18 -5 -27 16 -39 75 -24 75 19 0 35 -28 80 -57 93 -41 19
-105 13 -150 -14z m117 -230 c37 -19 54 -77 45 -148 -14 -100 -103 -143 -159
-77 -29 35 -39 75 -34 145 3 48 5 51 48 73 52 26 62 27 100 7z"/>
</g>
</svg>
<svg y="1125" width="900" height="75" viewBox="0 0 900 75">
<g transform="translate(0,75) scale(0.1,-0.1)" fill="#000">
<path d="M400 556 c0 -35 -3 -77 -6 -94 -6 -32 -7 -32 -132 -58 -13 -3 -22
-10 -19 -17 4 -14 79 -16 114 -4 22 8 22 8 7 -35 -22 -64 -57 -118 -108 -168
-25 -24 -46 -48 -46 -52 0 -15 75 23 108 55 42 41 87 119 103 179 11 38 19 49
42 58 55 19 56 16 35 -62 -27 -100 -21 -160 20 -201 28 -28 39 -32 102 -35 72
-4 124 9 134 33 2 7 -2 30 -9 51 -8 22 -14 48 -15 59 0 27 -15 8 -30 -38 -15
-46 -40 -61 -94 -53 -76 13 -90 47 -62 154 8 29 24 68 35 88 26 43 26 40 -3
59 -22 15 -28 14 -75 -4 -59 -22 -60 -22 -40 70 10 47 9 54 -7 66 -10 7 -26
13 -36 13 -15 0 -18 -9 -18 -64z"/>
<path d="M4475 565 c-49 -7 -116 -16 -147 -20 -32 -3 -58 -10 -58 -15 0 -15
54 -26 98 -20 24 4 45 3 48 -2 9 -14 -8 -98 -23 -113 -8 -8 -32 -15 -54 -15
-28 0 -39 -4 -39 -15 0 -11 12 -15 46 -15 38 0 45 -3 40 -17 -2 -10 -12 -44
-22 -75 l-18 -58 -40 0 c-57 0 -116 -11 -116 -21 0 -22 56 -37 100 -28 25 5
135 12 245 15 110 3 206 7 212 9 7 3 10 11 7 18 -10 27 -52 37 -125 31 -47 -5
-69 -3 -69 4 0 6 12 43 26 82 25 69 25 72 7 86 -13 10 -33 13 -75 8 -64 -7
-67 -4 -43 52 8 19 12 41 9 48 -7 17 25 26 99 26 43 0 57 3 57 15 0 17 -31 36
-57 34 -10 -1 -58 -7 -108 -14z m51 -272 c-10 -32 -23 -64 -28 -70 -11 -13
-98 -18 -98 -6 0 4 10 37 22 74 l22 68 40 3 c23 2 45 0 50 -4 6 -5 3 -31 -8
-65z"/>
<path d="M2407 486 l6 -84 -54 -11 c-30 -5 -71 -13 -92 -17 -47 -8 -55 -21
-23 -35 19 -9 40 -9 85 1 33 7 64 13 68 14 5 0 11 -27 14 -62 8 -87 35 -114
117 -120 73 -5 172 14 172 33 0 26 -38 38 -85 26 -64 -16 -130 -14 -146 5 -7
9 -15 42 -17 73 l-4 58 43 7 c24 4 86 11 137 16 52 5 97 12 101 15 10 10 -39
45 -63 45 -11 0 -59 -9 -106 -20 -47 -11 -90 -20 -96 -20 -7 0 -8 23 -2 72 8
77 3 88 -39 88 -21 0 -22 -2 -16 -84z"/>
<path d="M3410 556 c0 -7 11 -33 24 -58 l24 -46 -116 -12 c-65 -7 -121 -16
-126 -20 -4 -5 4 -16 18 -25 24 -16 31 -16 113 -1 49 10 155 20 236 23 81 3
150 9 152 13 8 12 -32 42 -57 43 -13 0 -55 -3 -94 -7 l-71 -8 -7 36 c-7 38
-46 76 -77 76 -11 0 -19 -6 -19 -14z"/>
<path d="M6495 555 c-33 -8 -90 -17 -127 -21 -71 -7 -82 -16 -47 -35 31 -16
246 8 293 33 19 10 19 11 1 24 -22 17 -40 16 -120 -1z"/>
<path d="M1380 547 c0 -7 15 -20 33 -29 25 -12 46 -40 97 -134 36 -65 78 -133
94 -151 27 -31 32 -33 97 -33 38 0 69 4 69 9 0 5 -28 25 -63 44 -84 47 -126
91 -189 194 -39 64 -61 90 -85 100 -41 16 -53 17 -53 0z"/>
<path d="M5629 525 c-7 -6 -301 -35 -360 -35 -27 0 -49 -2 -49 -4 0 -2 7 -19
15 -38 7 -19 19 -84 25 -143 6 -60 13 -112 16 -117 7 -11 32 -10 36 2 2 5 59
14 128 20 l125 11 25 -31 c22 -26 27 -29 42 -18 24 18 36 55 48 155 6 48 16
103 22 122 10 32 8 37 -16 58 -26 22 -47 29 -57 18z m7 -122 c-4 -43 -10 -93
-14 -111 -7 -33 -8 -33 -67 -36 -33 -2 -101 -7 -151 -11 l-91 -8 -10 104 c-12
115 -10 119 46 119 l34 0 -6 -52 c-4 -29 -16 -65 -28 -81 -11 -16 -18 -31 -15
-34 9 -10 55 26 70 55 14 27 32 100 28 115 -1 4 7 7 17 7 25 0 33 -23 25 -80
-6 -44 -4 -50 19 -65 34 -22 110 -17 115 7 3 14 -6 17 -45 20 l-48 3 1 36 c1
19 4 48 8 62 6 25 10 27 62 27 l57 0 -7 -77z"/>
<path d="M7428 502 c-99 -16 -126 -34 -72 -48 48 -12 264 18 264 36 0 15 -36
30 -67 29 -15 -1 -72 -9 -125 -17z"/>
<path d="M1344 413 c-14 -46 -44 -92 -96 -149 -32 -34 -58 -64 -58 -68 0 -9
58 22 96 51 17 13 52 50 78 83 l47 59 -21 21 c-25 25 -39 26 -46 3z"/>
<path d="M8405 406 c-106 -12 -190 -26 -189 -31 1 -6 14 -18 30 -27 27 -15 34
-15 84 -2 33 9 121 18 218 21 93 3 165 10 169 16 3 6 -4 19 -17 29 -28 22 -50
22 -295 -6z"/>
<path d="M6480 385 c-36 -7 -82 -13 -102 -14 -45 -1 -57 -17 -25 -32 19 -8 52
-8 128 1 125 14 141 21 108 44 -13 9 -28 15 -34 15 -5 -1 -39 -7 -75 -14z"/>
<path d="M3354 323 c-14 -45 -25 -63 -73 -121 -92 -110 12 -59 113 55 33 38
37 46 25 58 -26 24 -59 28 -65 8z"/>
<path d="M3517 324 c-6 -6 93 -152 121 -177 17 -15 21 -16 31 -3 16 19 6 67
-21 101 -30 38 -118 91 -131 79z"/>
<path d="M7420 268 c-118 -11 -219 -24 -224 -28 -15 -14 56 -51 84 -44 64 16
158 25 313 31 92 3 170 10 172 14 3 4 -7 17 -21 28 -32 25 -39 25 -324 -1z"/>
<path d="M6600 240 c-30 -4 -129 -13 -220 -20 -197 -14 -199 -15 -177 -38 21
-20 63 -21 206 -4 57 7 157 12 222 12 94 0 119 3 119 14 0 35 -58 50 -150 36z"/>
</g>
</svg>
<svg x="52" y="552" width="796" height="96" viewBox="0 0 796 96">
<g transform="translate(0,96) scale(0.1,-0.1)" fill="#000">
<path d="M6385 728 c-19 -40 -57 -98 -84 -128 -49 -53 -50 -54 -45 -24 l6 31
-94 30 c-100 33 -111 32 -129 -15 -6 -16 -4 -52 6 -107 9 -45 18 -116 20 -156
2 -41 4 -75 4 -77 1 -1 11 4 24 12 12 8 53 20 91 26 83 13 89 16 81 41 -19 60
107 -40 167 -133 17 -26 33 -48 36 -48 13 0 -13 72 -44 122 -19 32 -32 63 -28
69 13 22 114 3 161 -30 34 -24 43 -27 43 -14 0 26 -65 79 -114 92 -71 18 -95
14 -108 -14 l-11 -26 -33 32 c-22 22 -39 30 -53 26 -16 -4 -21 1 -26 25 -9 38
2 51 108 138 78 63 87 75 87 104 0 47 -11 96 -21 96 -5 0 -24 -33 -44 -72z
m-259 -188 c0 -46 -1 -50 -23 -50 -16 0 -23 6 -23 19 0 10 -3 33 -6 50 -6 29
-5 31 22 31 28 0 29 -2 30 -50z m82 -7 c3 -37 0 -43 -16 -43 -20 0 -32 25 -32
68 0 19 5 23 23 20 18 -2 23 -10 25 -45z m-68 -107 c0 -7 3 -28 6 -46 7 -30 6
-31 -22 -28 -23 2 -30 8 -32 31 -2 16 -1 35 2 43 7 18 46 18 46 0z m83 -18 c6
-40 2 -48 -24 -48 -16 0 -19 7 -19 40 0 33 4 40 19 40 13 0 20 -9 24 -32z"/>
<path d="M5737 743 c-11 -21 -12 -42 -6 -83 12 -83 11 -100 -6 -100 -10 0 -16
16 -21 50 -8 61 -28 62 -32 2 -5 -62 -22 -51 -22 13 0 50 -2 55 -22 55 -12 0
-30 8 -41 17 -18 17 -20 17 -37 -5 -15 -18 -18 -33 -13 -72 4 -34 2 -50 -6
-50 -6 0 -11 11 -11 25 0 21 -5 25 -22 24 -54 -5 -58 -2 -58 50 0 28 -4 52 -9
55 -16 10 -34 -24 -33 -60 1 -31 -1 -34 -19 -29 -24 8 -49 -10 -49 -36 0 -15
8 -19 39 -19 42 0 51 -11 51 -61 0 -24 -4 -29 -24 -29 -16 0 -26 -7 -30 -22
-7 -30 7 -43 32 -29 29 16 30 15 38 -24 8 -45 28 -40 32 8 3 32 8 39 38 52 20
8 33 19 29 25 -3 5 1 10 9 10 16 0 21 -36 16 -99 -1 -20 2 -22 17 -16 10 4 32
11 49 15 50 12 53 16 43 61 -9 40 -6 59 8 46 3 -4 9 -23 12 -44 9 -56 31 -55
31 2 0 33 4 45 13 43 7 -3 15 -37 21 -91 4 -48 12 -87 16 -87 4 0 13 7 20 15
10 12 11 31 4 80 -6 36 -7 65 -3 65 21 0 76 -62 101 -115 l29 -60 -6 50 c-7
63 -49 132 -95 156 -42 23 -48 39 -49 152 -1 91 -10 107 -34 60z m-127 -129
c15 -38 13 -44 -15 -44 -22 0 -25 4 -25 35 0 42 25 48 40 9z m-121 -65 c12
-34 7 -49 -13 -49 -14 0 -26 29 -26 63 0 29 27 19 39 -14z m141 -41 c0 -7 3
-23 6 -35 5 -18 2 -23 -14 -23 -23 0 -27 4 -36 43 -6 24 -4 27 19 27 14 0 25
-6 25 -12z"/>
<path d="M1685 719 c-33 -37 -35 -43 -22 -56 31 -31 77 16 77 78 0 29 -14 23
-55 -22z"/>
<path d="M1381 734 c-12 -9 -19 -20 -14 -24 8 -8 128 -58 205 -85 58 -21 54 0
-6 34 -30 17 -70 44 -89 61 -39 34 -62 37 -96 14z"/>
<path d="M2040 735 c0 -28 46 -101 80 -127 l31 -24 -61 -104 c-82 -143 -86
-156 -65 -241 9 -38 21 -69 26 -69 5 0 9 3 9 8 0 33 33 200 46 232 14 34 21
40 45 40 25 0 29 -4 34 -37 14 -86 15 -88 32 -71 12 13 13 24 5 62 l-10 47 38
-3 c35 -2 38 -4 44 -37 3 -20 6 -44 6 -55 0 -17 -1 -17 -26 -1 -14 9 -28 15
-30 12 -8 -8 41 -107 53 -107 19 0 46 48 45 81 -1 26 1 28 20 18 11 -6 36 -9
54 -7 19 2 34 2 34 0 0 -3 -16 -22 -36 -44 -28 -32 -33 -42 -23 -54 25 -30 59
-5 82 61 19 55 33 54 47 -5 12 -51 34 -66 45 -31 3 10 1 30 -4 45 -10 26 -10
26 34 26 35 0 45 4 50 21 9 29 2 33 -55 30 l-50 -2 -6 40 c-5 34 -9 39 -20 30
-8 -6 -14 -22 -14 -35 0 -13 -3 -24 -6 -24 -10 0 -89 57 -108 79 -11 11 -23
21 -28 21 -13 0 11 -41 45 -77 l31 -33 -30 0 c-16 0 -38 -3 -50 -6 -20 -5 -22
2 -43 132 -12 76 -24 141 -27 143 -3 3 -9 -1 -15 -9 -9 -14 -7 -47 7 -127 l6
-33 -71 0 -71 0 17 34 c14 30 18 33 35 23 16 -10 22 -8 39 12 25 31 21 43 -18
46 -39 3 -79 31 -132 92 -29 32 -41 41 -41 28z"/>
<path d="M5846 703 c-26 -41 -53 -119 -44 -129 6 -5 66 55 108 109 29 37 26
57 -10 57 -23 0 -35 -8 -54 -37z"/>
<path d="M2327 710 c3 -11 23 -40 44 -64 l40 -45 -43 -3 c-30 -2 -43 -7 -43
-18 0 -11 15 -16 54 -20 48 -4 52 -7 38 -19 -26 -21 -22 -53 5 -49 15 2 25 13
32 36 5 17 13 32 17 32 5 0 12 -15 17 -32 11 -44 37 -44 37 1 l0 33 42 -5 c28
-3 46 0 54 9 22 27 5 38 -54 35 l-56 -2 -7 51 c-8 61 -28 62 -32 2 l-3 -42
-46 32 c-25 18 -54 45 -65 60 -23 33 -38 37 -31 8z"/>
<path d="M1826 669 c-42 -45 -42 -62 -3 -67 23 -3 30 2 42 32 17 40 20 76 6
76 -5 0 -25 -18 -45 -41z"/>
<path d="M1750 578 c-10 -22 -10 -46 3 -129 9 -57 14 -105 11 -109 -3 -3 -85
-5 -182 -5 l-177 0 3 45 4 45 -46 -45 c-25 -24 -46 -50 -46 -57 0 -7 12 -20
26 -29 21 -15 56 -17 227 -18 l202 -1 3 -57 c2 -42 7 -58 17 -58 36 0 37 37
10 223 -15 100 -30 191 -35 202 -7 19 -8 18 -20 -7z"/>
<path d="M1657 573 c-4 -6 -33 -17 -65 -23 -69 -15 -76 -18 -63 -33 5 -7 12
-33 16 -59 6 -38 11 -48 26 -48 10 0 34 -7 53 -17 42 -20 66 -6 65 36 -1 49
-25 156 -32 144z m-7 -72 c19 -37 12 -51 -24 -51 -22 0 -36 6 -40 16 -11 29
-6 43 17 47 12 2 25 5 29 6 4 0 12 -8 18 -18z"/>
<path d="M6360 566 c-6 -6 -10 -19 -10 -29 0 -18 5 -19 46 -13 26 3 89 6 141
6 69 0 94 3 91 12 -3 7 -18 15 -34 19 -49 12 -223 16 -234 5z"/>
<path d="M5414 315 c-16 -38 -18 -65 -6 -65 4 0 25 15 45 34 41 38 41 66 0 66
-18 0 -28 -9 -39 -35z"/>
<path d="M5650 320 c0 -5 22 -21 50 -35 27 -14 65 -39 84 -56 29 -25 41 -29
65 -24 33 7 58 30 43 39 -10 6 -231 86 -238 86 -2 0 -4 -4 -4 -10z"/>
<path d="M5567 288 c-15 -12 -37 -58 -37 -79 0 -19 27 -8 60 26 28 29 31 37
20 50 -15 18 -21 19 -43 3z"/>
</g>
</svg>
</svg>
