<svg viewBox="0 0 67 67" xmlns="http://www.w3.org/2000/svg"><g transform="translate(-217.69 -10.75)"><text x="10.8125" y="51.5312" fill="#000000" font-family="'DejaVu Serif'" font-style="italic"  text-anchor="end" style="line-height:0%" xml:space="preserve"><tspan x="16.542969" y="51.5312" font-size="18px" style="line-height:1"> </tspan></text><g transform="translate(-8.8123 .5)" stroke="#000"><g stroke-linecap="round" stroke-linejoin="bevel"><circle transform="translate(217.5 1.25)" cx="42.5" cy="42.5" r="32.5" fill="#fedaa4" stroke-width="2"/><circle transform="matrix(.89566 0 0 .89566 221.93 5.6844)" cx="42.5" cy="42.5" r="32.5" fill="none" stroke-width="2.233"/></g><g transform="matrix(1.5534 0 0 1.5534 -400.78 -588.55)" fill="#fedaa4" stroke-width="1.2875"><path d="m419.5 403.59c-.86079 1.1323-1.3438 2.5334-1.3438 4.0312 0 1.8607.79538 3.547 2.0625 4.7812-2.5092 1.4804-4.3113 4.0256-4.8438 7h20c-.53248-2.9744-2.3345-5.5196-4.8438-7 1.2671-1.2343 2.0312-2.9205 2.0312-4.7812 0-1.4339-.49195-2.7703-1.2812-3.875z" color="#000000" stroke-linecap="round" stroke-linejoin="round"/><path d="m431.42 403.68-12.327-.0975-2.7903-6.748 6.4827 1.4738 2.7507-3.6346 2.4458 3.9719 7.0689-1.3042-3.6308 6.3385z" stroke-linejoin="round"/><path d="m428.9 406.54-1.9687 1.9795v0" stroke-linecap="round"/><path d="m421.83 406.45 1.9687 1.9795v0" stroke-linecap="round"/></g></g></g></svg>
