<svg viewBox="0 0 67 67" xmlns="http://www.w3.org/2000/svg"><g transform="translate(-238.46 -8.2304)"><text x="10.8125" y="51.5312" fill="#000000" font-family="'DejaVu Serif'" font-size="18px" font-style="italic"  text-anchor="end" style="line-height:100%" xml:space="preserve"><tspan x="10.8125" y="65.206985"/></text><g transform="translate(9.7352)" stroke="#000"><g stroke-linecap="round" stroke-linejoin="bevel"><circle transform="translate(219.73 -.76955)" cx="42.5" cy="42.5" r="32.5" fill="#fedaa4" stroke-width="2"/><circle transform="matrix(.89566 0 0 .89566 224.16 3.6649)" cx="42.5" cy="42.5" r="32.5" fill="none" stroke-width="2.233"/></g><g transform="matrix(0 1.6096 -1.6897 0 1158.6 -484.15)" fill="none" stroke-width="1.2127"><circle cx="328.36" cy="530.18" r="3.0936" color="#000000" stroke-linecap="round" stroke-linejoin="round"/><circle transform="translate(0 -.31567)" cx="328.36" cy="530.49" r="5.1139" color="#000000" stroke-linecap="round" stroke-linejoin="round"/><path d="m328.93 525.19c.10522-1.4521-.29463-5.2402-.56821-8.2706l-3.3461-.0631c-2.8283 7.3093-5.76 14.201-4.9245 18.183.83548 3.982 5.1928 5.5383 7.955 2.4622l1.9572 2.7779 3e-5 3.7249 2.2728.18944-.0631-4.3563-2.9042-4.4825"/></g></g></g></svg>
