<svg viewBox="0 0 67 67" xmlns="http://www.w3.org/2000/svg"><g transform="translate(-182.44 -9.75)"><text x="10.8125" y="51.5312" fill="#000000" font-family="'DejaVu Serif'" font-style="italic"  text-anchor="end" style="line-height:0%" xml:space="preserve"><tspan x="16.542969" y="51.5312" font-size="18px" style="line-height:1"> </tspan></text><g transform="translate(-23.062 1)" stroke="#000"><g transform="translate(107.75,-1.5)" stroke-linecap="round" stroke-linejoin="bevel"><circle transform="translate(88.75,1.25)" cx="42.5" cy="42.5" r="32.5" fill="#fedaa4" stroke-width="2"/><circle transform="matrix(.89566 0 0 .89566 93.184 5.6844)" cx="42.5" cy="42.5" r="32.5" fill="none" stroke-width="2.233"/></g><g transform="matrix(1.647 0 0 1.647 -366.26 -537.9)" fill="none" stroke-width="2"><g transform="rotate(106.72 368.71 352.41)" fill="none" stroke="#000" stroke-width="2"><g><path d="m365.51 356.55s-1.7047 3.0389.45924 7.0606c2.164 4.0217 6.6706 1.1723 9.3096-1.0812s7.27-6.5823 7.27-6.5823l-3.8891-13.081s-5.6871-.98142-8.9764-1.0176c-3.2893-.0362-9.4199 1.2704-8.8791 5.0942.54079 3.8238 3.6538 6.2506 3.6538 6.2506"/><path d="m375.27 342.28 4.62 15.701"/><path d="m377.43 349.66-14.291 4.0642"/><path d="m378.39 352.59-14.351 4.2499"/></g><path d="m358.6 355.28-1.087-2.2293 3.2906-.8791.43807 2.6952 1.5026-1.7678 1.2279 4.4598-2.4593-.4859 1.3149 2.7454-2.9808.61681-.28462-2.6515-1.9934 1.2654-1.131-3.9242z" stroke-linejoin="round"/></g></g></g></g></svg>
