<svg viewBox="0 0 67 67" xmlns="http://www.w3.org/2000/svg"><g transform="translate(-191 -7.8769)"><text x="10.8125" y="51.5312" fill="#000000" font-family="'DejaVu Serif'" font-style="italic"  text-anchor="end" style="line-height:0%" xml:space="preserve"><tspan x="16.542969" y="51.5312" font-size="18px" style="line-height:1"> </tspan></text><g transform="translate(-3.972)" stroke="#000"><g stroke-linecap="round" stroke-linejoin="bevel"><circle transform="translate(185.97 -1.1231)" cx="42.5" cy="42.5" r="32.5" fill="#fedaa4" stroke-width="2"/><circle transform="matrix(.89566 0 0 .89566 190.4 3.3113)" cx="42.5" cy="42.5" r="32.5" fill="none" stroke-width="2.233"/></g><g transform="matrix(-.57488 1.564 -1.564 -.57488 1476.2 -419.09)"><path d="m509.85 611.92c4.0276 6.2063 12.506 4.9669 20.506 1.1536l-5.7143-15.714c-2.3309 1.6559-3.7214 2.5256-6.0714 5.3571l-.71429-5.7143c.11905-1.369-1.7262-3.4524-3.9286-1.4286l-3.5714 7.8571h-2.8571c.10009 2.0132.37569 3.7518.80253 5.2426" fill="none" stroke-width="1.2003"/><circle transform="matrix(.66867 0 0 .66867 169.71 199.5)" cx="514.11" cy="602.81" r=".98214" color="#000000" fill="#a00" stroke-width="1.795"/><path d="m512.05 607.36-7.2321 2.0536c1.8548 2.0784 5.5009 3.023 8.4821 2.3214" fill="none" stroke-linecap="round" stroke-linejoin="round" stroke-width="1.2003"/></g></g></g></svg>
