<svg viewBox="0 0 67 67" xmlns="http://www.w3.org/2000/svg"><g transform="translate(-147.69 -11.518)"><text x="10.8125" y="51.5312" fill="#000000" font-family="'DejaVu Serif'" font-style="italic"  text-anchor="end" style="line-height:0%" xml:space="preserve"><tspan x="16.542969" y="51.5312" font-size="18px" style="line-height:1"> </tspan></text><g stroke="#000"><g transform="translate(49.937 1.2678)" stroke-linecap="round" stroke-linejoin="bevel"><circle transform="translate(88.75,1.25)" cx="42.5" cy="42.5" r="32.5" fill="#fedaa4" stroke-width="2"/><circle transform="matrix(.89566 0 0 .89566 93.184 5.6844)" cx="42.5" cy="42.5" r="32.5" fill="none" stroke-width="2.233"/></g><g transform="matrix(1.4744 0 0 1.4744 -587.32 -912.09)" stroke-width="1.3565"><rect x="515.16" y="644.22" width="12.143" height="10.179" color="#000000" fill="none" stroke-linecap="round" stroke-linejoin="round"/><g transform="translate(1e-4 1.1401)"><rect x="512.53" y="654.26" width="17.411" height="1.9643" color="#000000" fill="none" stroke-linecap="round" stroke-linejoin="round"/><g transform="translate(5e-5 -.73329)"><rect x="510.74" y="657.96" width="20.982" height="2.4107" color="#000000" fill="none" stroke="#000" stroke-linecap="round" stroke-linejoin="round" stroke-width="1.3565"/></g></g><path d="m530.25 637.53h-3.875v2.4688h-3.2188v-2.4688h-3.8438v2.4688h-3.2188v-2.4688h-3.875l.0312 5.6875h17.969v-2.25z" color="#000000" fill="none" stroke-linecap="round" stroke-linejoin="round"/></g></g></g></svg>
