<svg viewBox="0 0 67 67" xmlns="http://www.w3.org/2000/svg"><g transform="translate(-71.063 -10.25)"><text x="10.8125" y="51.5312" fill="#000000" font-family="'DejaVu Serif'" font-size="18px" font-style="italic"  text-anchor="end" style="line-height:100%" xml:space="preserve"><tspan x="10.8125" y="65.206985"/></text><g transform="translate(-20.187 -.75)"><g stroke-linecap="round" stroke-linejoin="bevel"><circle transform="translate(82.25 2)" cx="42.5" cy="42.5" r="32.5" fill="#fedaa4" stroke="#000" stroke-width="2"/><circle transform="matrix(.89566 0 0 .89566 86.684 6.4344)" cx="42.5" cy="42.5" r="32.5" fill="none" stroke="#c00" stroke-width="2.233"/></g><g transform="matrix(0 1.652 -1.549 0 1121.8 -541.77)" stroke="#c00" stroke-linejoin="round"><g fill="none" stroke-width="1.2503"><path d="m358.98 643.06c1.253-1.1071 3.4434-1.5268 5.4464-1.0714l-.14285 14.393c-.0293 2.9478-7.4107-.89285-7.4107-.89285"/><path d="m354.38 646.92s3.024.66193 3.8393 2.6786-1.6071 8.2143-1.6071 8.2143-9.73-4.5258-10.357-5.8036.26786-4.5536.26786-4.5536c-4.1714-7.7932 3.7209-9.5833 9.2451-10.671l.31205-1.9616-4.8277-1.2058.0505-2.15c6.9105 1.1504 14.317 3.643 7.1844 8.9348 0 0 .42022 1.5548.31833 3.0178-.1019 1.463-4.4255 3.5001-4.4255 3.5001z"/><path d="m358.5 642.28-1.6397-12.762-1.6877 12.96z"/></g><circle transform="matrix(.74438 0 0 .74438 78.14 309.27)" cx="366.65" cy="444.73" r=".75345" color="#000000" fill="#a00" stroke-linecap="round" stroke-width="1.6796"/></g></g></g></svg>
