<svg viewBox="0 0 67 67" xmlns="http://www.w3.org/2000/svg"><g transform="translate(-68.11 -6.4627)"><text x="10.8125" y="51.5312" fill="#000000" font-family="'DejaVu Serif'" font-size="18px" font-style="italic"  text-anchor="end" style="line-height:100%" xml:space="preserve"><tspan x="10.8125" y="65.206985"/></text><g transform="translate(-13.551 -4.2426)" stroke-linecap="round"><g stroke-linejoin="bevel"><circle transform="translate(72.661 1.7053)" cx="42.5" cy="42.5" r="32.5" fill="#fedaa4" stroke="#000" stroke-width="2"/><circle transform="matrix(.89566 0 0 .89566 77.095 6.1398)" cx="42.5" cy="42.5" r="32.5" fill="none" stroke="#c00" stroke-width="2.233"/></g><path d="m131.55 63.633c-1.1478-4.8106-4.3237-8.8449-8.5969-11.074 2.7322-2.2559 4.4684-5.6607 4.4684-9.4712 0-5.3996-3.5074-9.97-8.3541-11.608.36338-.65045.58286-1.3877.58286-2.1857 0-2.4929-2.0241-4.517-4.517-4.517-2.4929 0-4.517 2.0241-4.517 4.517 0 .8024.26432 1.5327.63143 2.1857-4.8636 1.6287-8.3541 6.1965-8.3541 11.608 0 3.8105 1.7496 7.2152 4.4684 9.4712-4.2732 2.2291-7.4492 6.2634-8.5969 11.074z" color="#000000" fill="none" stroke="#c00" stroke-linejoin="round" stroke-width="2"/></g></g></svg>
