<svg version="1.1" viewBox="0 0 100 100" xmlns="http://www.w3.org/2000/svg"><title>砲</title><circle cx="50" cy="50" r="50" fill="#eb5"/><circle cx="50" cy="50" r="45" fill="#eb5" stroke="#000" stroke-width="2"/><svg x="15" y="15" width="70px" height="70px" version="1.1" viewBox="0 0 250 250"><g transform="scale(.1 -.1)"><path d="m885-720c-44-20-266-73-373-89-131-19-152-45-80-99 17-12 49-21 93-25l67-5-6-39c-9-52-60-180-102-251-75-128-231-311-323-377-72-52-80-83-23-88 69-7 198 58 297 149 31 29 46 37 49 28 3-8 12-66 21-129 22-160 24-167 52-200 30-37 47-38 77-5 20 22 39 27 137 40 62 8 132 15 155 15 54 0 73 20 51 54-14 21-13 31 14 123 34 118 54 169 80 202 24 30 25 83 2 104-23 20-102 54-145 62-23 4-51-1-94-19-52-21-178-56-203-56-5 0 15 46 44 103 28 56 55 111 58 122s18 40 32 65c25 43 28 72 11 111-6 13 1 18 36 23 78 12 212 48 251 67 61 32 46 73-41 110-50 22-94 23-137 4zm-25-697c0-20-30-211-35-228-3-10-33-22-87-33-45-9-82-16-84-15-6 6-27 248-22 253 8 8 146 33 191 34 23 1 37-4 37-11z"/><path d="m1366-311c-10-9-16-33-16-57 0-154-170-501-360-737-25-31-18-60 14-60 47 0 175 101 275 217 53 61 57 64 91 58 21-4 78 2 136 14 119 24 325 45 358 37 22-5 25-13 32-73 9-84-10-327-31-408-27-101-55-115-140-69-85 45-98 12-36-94 21-37 48-88 59-114 39-90 101-90 192 0 79 78 97 131 116 337 23 257 32 321 54 374 20 46 21 51 5 81-17 34-155 130-186 130-10 0-29-4-43-9-28-11-422-81-455-81-21 0-21 1 9 53 17 28 49 88 71 131 23 44 50 91 60 106 16 20 18 32 10 51-12 33-74 87-125 110-50 23-70 24-90 3z"/><path d="m1470-1075c-30-16-88-37-129-46-63-14-82-15-122-5-27 7-58 10-69 6-20-6-21-12-16-53 4-26 11-193 16-371 4-179 11-340 15-360 23-121 126-216 300-278 78-27 85-28 295-27 206 0 219 1 305 28 164 50 281 129 299 202 5 17-4 49-28 102-19 42-44 119-55 170-24 110-25 112-56 112-28 0-34-18-59-163-22-127-45-162-135-207-73-36-173-53-336-54-228-1-327 28-369 109-18 34-22 62-24 175l-4 136 159 19c136 17 158 23 161 38 2 10-3 26-12 36-14 15-12 27 24 126 22 60 54 126 70 147 34 42 39 87 12 111-22 21-118 64-157 71-22 4-45-3-85-24zm9-172c0-18-8-69-17-112l-17-80-55-12c-30-7-61-13-67-14-16 0-17 70-2 157 11 63 11 63 53 73 22 6 46 13 51 15 6 2 20 4 33 4 19 1 22-4 21-31z"/></g></svg></svg>
