<svg version="1.1" viewBox="0 0 100 100" xmlns="http://www.w3.org/2000/svg"><title>將</title><circle cx="50" cy="50" r="50" fill="#eb5"/><circle cx="50" cy="50" r="45" fill="#eb5" stroke="#000" stroke-width="2"/><svg x="15" y="15" width="70px" height="70px" version="1.1" viewBox="0 0 250 250"><g transform="scale(.1 -.1)"><path d="m813-323c-18-7-16-64 2-90 23-32 35-141 35-314v-157l-32-5c-104-18-189-29-192-26-1 2 3 67 10 144s11 148 8 157c-6 21-67 70-117 94-30 14-41 15-63 5-24-11-26-15-18-49 5-20 9-86 9-147 0-85-5-129-24-197-21-78-22-91-10-120 16-38 76-108 93-108 7 0 31 14 54 31 37 27 180 85 255 103l27 6v-144c0-141 0-144-22-149-94-24-322-48-392-43-86 7-106 0-106-40 0-28 82-114 128-135 39-17 41-36 8-121-51-136-123-253-223-359-76-81-42-113 62-58 143 75 243 184 327 357 23 48 56 109 72 136 26 43 28 52 18 79-6 17-11 31-9 32 1 1 31 12 66 23l64 22-7-161c-4-88-14-199-22-247-28-155-28-185-5-260 36-119 80-150 134-94 62 65 61 47 63 717 2 620 12 857 40 954 22 76 9 102-69 141-57 28-127 38-164 23z"/><path d="m1493-283c-7-2-13-19-13-36 0-66-73-169-233-330-89-89-106-111-97-123 20-23 61-16 145 26l79 40 82-80c49-48 90-80 102-80 33 0 72 41 79 82 9 58-13 83-99 109-88 28-87 27-66 43 10 7 63 16 121 19 56 4 135 14 175 23s76 14 79 11-9-30-27-59c-122-198-370-422-616-555-66-36-90-54-92-71-2-13 3-25 12-28 51-19 307 82 446 176 34 23 63 40 64 38 17-26 61-169 53-174-5-3-354-37-487-48-80-6-151-15-157-19-7-5-13-19-13-32 0-27 52-62 133-89 45-15 54-15 170 8 156 32 358 49 370 33 12-18-1-422-16-495-19-87-22-89-110-73-175 33-177 18-19-146 90-94 124-123 144-123 56 0 147 93 169 173 8 30 9 133 4 365l-7 323 193-3c211-3 239 2 239 46 0 33-55 79-125 105-67 25-77 25-200 5-53-9-98-15-100-12-2 2-1 29 4 59 15 95-17 133-131 154l-36 7 80 76c44 43 120 124 168 182s111 124 139 148 51 50 51 57c0 45-149 145-215 145-17 0-73-13-124-30-98-31-161-46-161-37 0 3 16 15 35 27 71 44 36 111-78 149-60 21-90 24-114 14z"/><path d="m1441-867c-37-15-264-59-304-59-19 0-40-7-47-15-26-31 71-145 123-145 22 0 69 24 177 90 101 61 145 102 137 124-7 18-48 20-86 5z"/><path d="m1186-1502c-9-8-16-21-16-28 0-24 111-191 155-233 48-47 76-53 125-28 50 26 61 113 24 187-18 34-62 61-156 92-89 30-111 32-132 10z"/></g></svg></svg>
