<svg version="1.1" viewBox="0 0 100 100" xmlns="http://www.w3.org/2000/svg"><title>馬</title><circle cx="50" cy="50" r="50" fill="#eb5"/><circle cx="50" cy="50" r="45" fill="#eb5" stroke="#000" stroke-width="2"/><svg x="15" y="15" width="70px" height="70px" version="1.1" viewBox="0 0 250 250"><g transform="scale(.1 -.1)"><path d="m1565-250c-75-20-380-70-548-89-147-17-150-17-213 4-77 25-93 26-122 5-29-20-28-43 4-105 27-50 27-52 25-257-2-269-16-385-58-499-13-37-14-50-3-89 7-25 28-62 46-81 38-40 43-40 139 0 140 59 585 117 901 117 153 0 149 6 140-193-12-269-41-382-121-464-59-61-56-61-169-16-74 28-85 29-95 1-6-17 7-45 68-138 42-64 90-133 108-153l32-36 48 14c63 19 151 89 195 156 71 108 104 238 132 524 15 154 28 204 65 265 33 56 28 75-31 114-29 19-87 48-128 64-68 27-81 29-135 21-33-5-141-15-240-24-99-8-209-18-244-21l-64-7 6 39c4 21 7 51 7 65 0 31-1 31 228 54 160 15 207 33 207 76 0 19-10 29-46 47-77 38-184 40-351 6-28-6-28-5-28 49 0 66-13 60 193 82 158 16 212 35 212 74 0 33-49 61-131 77-50 9-80 9-146-2-126-21-122-22-112 29 4 23 8 56 8 73v31l95 12c134 16 292 49 319 67 48 31 20 72-71 104-64 23-56 23-122 4zm-449-249c7-19 14-54 14-78v-44l-112-12c-62-7-120-14-130-15-14-3-16 4-11 53 11 116 10 115 89 122 141 11 134 13 150-26zm14-324v-58l-112-12c-62-6-123-14-135-17-22-4-23-2-23 67v72l48-6c38-4 105-1 210 12 8 1 12-17 12-58zm0-270v-68l-112-17c-62-9-128-20-147-23l-34-6 6 63c4 35 7 73 7 86 0 22 3 23 43 19 35-5 86-1 225 14 8 1 12-19 12-68z"/><path d="m442-1407c-6-7-18-35-27-62-10-28-40-99-67-159-43-92-51-117-51-170-1-76 18-116 64-139 72-35 120 14 163 167 33 112 34 203 5 282-20 54-49 94-68 94-5 0-13-6-19-13z"/><path d="m693-1485c-7-7-13-20-13-28 0-25 93-183 132-224 34-36 41-39 74-34 47 8 72 31 80 73 16 89-28 155-131 193-77 30-126 36-142 20z"/><path d="m1045-1450c-19-20-16-28 37-117 61-101 123-167 158-167 67 0 100 37 100 113 0 81-56 131-189 171-68 20-85 20-106 0z"/><path d="m1395-1400c-23-23-19-40 27-102 110-150 158-192 222-192 57 0 86 35 86 102 0 95-41 135-185 176-106 31-132 34-150 16z"/></g></svg></svg>
