<svg version="1.1" viewBox="0 0 100 100" xmlns="http://www.w3.org/2000/svg"><title>卒</title><circle cx="50" cy="50" r="50" fill="#eb5"/><circle cx="50" cy="50" r="45" fill="#eb5" stroke="#000" stroke-width="2"/><svg x="15" y="15" width="70px" height="70px" version="1.1" viewBox="0 0 250 250"><g transform="scale(.1 -.1)"><path d="m1042-150c-7-7-12-18-12-25 0-16 82-165 117-211 14-18 23-35 22-37-5-4-305-33-474-45-160-12-192-24-173-65 38-83 148-88 743-34 410 36 631 71 663 103 26 26 1 63-66 94-70 32-109 33-263 4-64-11-146-24-182-28-63-6-66-6-60 14 3 12 0 44-7 71-15 64-52 97-153 140-79 32-135 39-155 19z"/><path d="m802-630c-5-7-13-38-17-68-15-114-63-197-217-377-90-105-103-135-61-141 39-6 160 65 236 137l72 69 80-84c74-78 83-84 120-84 46 0 57 6 74 37 16 31 13 72-9 121-17 37-28 47-82 71-35 16-71 31-81 35-17 5-16 9 11 44 17 20 44 50 61 66 58 55 32 109-79 160-61 29-92 32-108 14z"/><path d="m1516-576c-2-4-9-42-15-85-14-97-55-204-130-332-32-55-56-105-54-112 17-45 121 4 202 94l47 53 95-88c112-104 138-122 179-122 76 0 113 117 57 179-29 31-145 87-213 102-30 7-54 15-54 19s25 41 55 83c30 41 55 84 55 95 0 29-43 70-102 97-52 24-112 33-122 17z"/><path d="m1125-1092c-15-22-15-30-1-84 9-33 16-87 16-120v-59l-102-7c-57-4-157-14-223-22s-217-19-335-24c-201-9-216-11-233-31-15-19-16-25-4-43 17-26 98-71 159-87 40-11 64-9 194 14 159 29 328 52 460 62l82 7 4-394c4-343 7-398 22-435 43-104 101-36 142 168 12 62 18 160 21 377 3 160 6 293 7 293 0 1 200 5 443 8 439 6 443 6 465 28 18 19 20 26 10 47-17 38-82 80-161 106l-70 22-143-21c-159-23-427-51-494-51-51 0-53 7-29 86 22 72 19 90-18 118s-136 66-173 66c-14 0-30-10-39-24z"/></g></svg></svg>
