<svg version="1.1" viewBox="0 0 100 100" xmlns="http://www.w3.org/2000/svg"><title>車</title><circle cx="50" cy="50" r="50" fill="#eb5"/><circle cx="50" cy="50" r="45" fill="#eb5" stroke="#000" stroke-width="2"/><svg x="15" y="15" width="70px" height="70px" version="1.1" viewBox="0 0 250 250"><g transform="scale(.1 -.1)"><path d="m1080-150c-15-23-15-29 4-90 11-36 23-89 26-118 4-29 8-63 11-74 3-20-2-23-74-33-42-6-129-16-192-22-185-17-212-34-151-93 37-35 117-46 256-35 55 4 115 8 133 9h32v-79-78l-47-6c-145-19-296-29-357-24-39 4-77 2-88-4-26-14-23-61 7-89 36-34 52-94 80-300 28-211 37-247 66-284 25-32 73-36 88-7 9 15 27 20 113 25 57 4 111 9 121 12 15 5 17-3 17-69v-75l-67-6c-38-4-171-18-298-32-126-13-284-27-350-30-139-7-181-17-191-46-8-26 29-64 110-112 69-41 90-43 194-17 99 25 222 46 392 66 74 8 152 18 172 20l36 5 4-288c3-268 4-289 24-322 12-21 28-35 39-35 23 0 60 53 75 104 18 61 40 300 40 428 0 107 2 122 18 127 50 14 470 28 677 23 252-7 277-3 283 44 4 38-41 87-113 120-84 40-106 43-236 25-95-13-567-56-615-56-11 0-14 16-14 69 0 81-9 75 145 86 91 7 91 7 103-19 18-39 51-51 95-33 19 9 43 27 53 42 9 14 49 134 89 266 46 150 82 253 99 277 35 51 33 74-11 113-42 36-168 98-218 106-19 3-89-9-179-31-81-20-152-36-157-36s-9 33-9 73v72l157 24c178 27 278 51 302 75 26 27-3 66-69 94-64 26-101 25-235-5-161-37-155-37-155-4 0 16 7 64 15 105 8 42 12 82 9 90-8 20-74 53-132 65-82 17-109 14-127-13zm539-754c-1-40-3-75-5-77-2-1-33 3-68 11-55 11-77 11-145-1-45-8-85-15-90-15-9 0-4 116 7 126 10 10 187 32 247 31l55-2-1-73zm-496-49-3-68-125-16c-69-9-126-16-127-15s-5 34-9 73l-7 70 104 10c57 5 119 11 137 11l33 2-3-67zm472-155c0-19-37-168-43-174-3-3-23-1-44 5-27 7-64 8-114 1-41-5-77-10-81-10-5 0-8 34-8 75 0 69 2 75 23 80 18 4 211 30 255 34 6 0 12-5 12-11zm-470-127v-78l-67-6c-38-4-89-7-114-7h-46l-7 53c-12 100-13 97 52 98 46 1 130 9 175 18 4 0 7-34 7-78z"/></g></svg></svg>
