<svg version="1.1" viewBox="0 0 100 100" xmlns="http://www.w3.org/2000/svg"><title>仕</title><circle cx="50" cy="50" r="50" fill="#eb5"/><circle cx="50" cy="50" r="45" fill="#eb5" stroke="#f00" stroke-width="2"/><svg x="15" y="15" width="70px" height="70px" version="1.1" viewBox="0 0 250 250"><g transform="scale(.1 -.1)" fill="#f00"><path d="m802-330c-5-7-13-40-16-73-4-33-14-84-22-114-18-62-94-218-162-330-94-156-281-391-396-498-31-29-56-57-56-61 0-20 30-34 60-27 68 15 271 169 380 288l44 49 9-29c9-33 0-391-14-543-6-58-21-153-34-212l-25-106 20-64c32-100 60-142 98-146 27-3 35 2 52 30 40 66 48 153 54 546 3 205 11 413 18 463l12 89-40 58-41 58 39 60c21 32 68 111 103 175 36 64 86 139 110 168 57 67 57 89 2 144-69 70-168 107-195 75z"/><path d="m1380-401c-13-7-29-25-34-40-9-24-6-37 18-78 36-64 55-220 56-446v-161l-27-6c-16-3-129-19-253-36-124-16-241-35-261-40-73-20-56-63 46-111 75-36 101-36 300 1 88 16 168 30 178 30 16 0 17-18 17-245 0-141-4-245-9-245-19 0-377-51-393-56-55-17-41-62 30-98 94-48 116-49 295-22 204 32 316 43 542 56 219 13 231 15 252 47 17 26 17 26-35 74-93 85-141 92-372 50-63-11-115-21-116-21-2 0 9 486 12 489 7 7 243 30 439 41 221 14 265 24 265 64 0 48-115 126-201 134-37 3-256-30-483-75l-29-5 7 128c10 180 33 338 57 383 15 29 17 44 10 62-19 49-95 97-198 124-69 18-81 18-113 2z"/></g></svg></svg>
