<svg version="1.1" viewBox="0 0 100 100" xmlns="http://www.w3.org/2000/svg"><title>炮</title><circle cx="50" cy="50" r="50" fill="#eb5"/><circle cx="50" cy="50" r="45" fill="#eb5" stroke="#f00" stroke-width="2"/><svg x="15" y="15" width="70px" height="70px" version="1.1" viewBox="0 0 250 250"><g transform="scale(.1 -.1)" fill="#f00"><path d="m562-300c-17-17-15-49 7-99 25-59 41-232 41-455 0-375-53-671-156-877-47-92-80-140-177-255-77-91-87-115-53-128 32-12 189 90 272 177 67 72 117 149 159 245 19 43 38 77 42 75 5-3 36-41 69-86 80-105 119-138 153-130 35 8 58 37 66 85 14 82-55 157-195 214-62 25-71 32-66 50 14 50 45 260 52 349 6 82 10 97 25 102 11 4 56 33 100 66 45 33 104 74 133 91 63 38 76 54 76 92 0 54-140 163-179 139-8-5-32-52-51-104-20-52-47-112-61-134l-24-40-3 150c-3 153 9 270 34 330 17 42 6 71-39 102-68 46-197 69-225 41z"/><path d="m241-952c-10-12-10-23-1-53 32-98 130-257 171-279 56-28 123 9 134 76 9 53-10 115-50 159-68 75-223 135-254 97z"/><path d="m1357-242c-8-9-16-46-20-96-12-148-145-493-261-674-20-31-36-63-36-72 0-22 26-28 60-14 31 13 141 114 178 163 20 27 21 27 67 15 44-12 52-11 123 16 200 73 336 101 368 75 14-12 15-28 9-119-13-196-61-433-98-484-13-18-16-18-90 3-43 12-82 21-87 21-27 0-18-34 22-87 24-32 55-76 68-98 32-55 70-95 90-95 21 0 89 44 113 73 66 81 102 201 142 482 28 198 38 242 65 292 10 19 15 43 12 55-8 32-73 90-133 121l-54 26-100-34c-97-33-395-108-402-101-2 2 39 91 92 198 52 107 95 200 95 206 0 24-76 96-125 118-58 28-78 29-98 10z"/><path d="m1345-1097c-84-41-168-58-209-43-18 7-47 12-64 12-45 0-55-25-37-86 12-40 13-104 8-364-6-348-4-371 50-442 110-145 331-216 632-205 212 8 363 45 486 117 67 40 119 99 119 137 0 12-16 54-35 94-20 42-43 117-55 174-21 102-43 141-76 128-16-6-18-10-44-156-11-59-27-124-36-144-33-69-137-120-294-144-117-18-388-6-472 20-113 36-138 84-138 267v110l118 22c64 12 140 25 167 30 40 6 51 12 53 28 2 11-6 28-16 37-19 18-19 19 4 98 13 44 34 99 48 122 62 103 62 104 39 135-24 32-98 70-150 76-28 4-54-2-98-23zm22-189c-3-31-11-80-17-108l-11-50-69-24c-38-13-73-21-77-17-8 8 10 140 27 198 9 31 16 38 53 46 23 6 55 11 71 12l29 1-6-58z"/></g></svg></svg>
