<svg version="1.1" viewBox="0 0 100 100" xmlns="http://www.w3.org/2000/svg"><title>帥</title><circle cx="50" cy="50" r="50" fill="#eb5"/><circle cx="50" cy="50" r="45" fill="#eb5" stroke="#f00" stroke-width="2"/><svg x="15" y="15" width="70px" height="70px" version="1.1" viewBox="0 0 250 250"><g transform="scale(.1 -.1)" fill="#f00"><path d="m648-229c-8-8-18-40-22-71-7-61-53-192-111-318l-36-78-58 7c-65 7-101-5-101-35 0-11 12-43 28-72l27-53-1-296c-1-233-5-319-20-410-27-168-25-253 6-314 27-53 62-86 91-86 24 0 59 55 59 93 0 25 3 27 38 27 20 0 111 9 202 20s185 21 210 22c39 3 45 6 48 26 2 14-5 33-18 47l-21 23 31 107c17 59 42 126 55 150 14 23 25 51 25 62 0 32-52 72-129 99l-72 25-77-35c-71-32-147-55-229-70l-33-5v73 73l168 27c92 14 183 26 203 26 19 0 44 7 55 15 18 13 18 15 2 44s-16 33 14 121c16 50 45 114 64 142 39 58 42 76 14 111-21 26-135 77-174 77-13 0-48-11-78-24-59-26-109-41-181-55l-46-8 53 66c30 36 81 104 114 151s76 101 96 119c20 19 36 45 36 57 0 29-45 73-105 100-72 32-109 38-127 20zm179-628c-3-18-9-58-12-89-4-31-10-61-14-68-8-12-138-50-225-65l-39-7 7 47c3 26 6 75 6 110 0 58 2 64 23 68 118 24 179 34 216 35l43 1-5-32zm-1-655c-12-160-5-148-94-166-84-18-205-38-207-34-1 1 1 54 3 118l4 116 52 7c28 3 85 15 126 25 128 33 123 36 116-66z"/><path d="m1440-180c-14-17-11-36 21-145 18-63 22-109 26-291l5-217-86-12c-98-14-110-14-183-4-62 8-83-4-83-48 0-16 7-45 15-66 39-91 26-269-27-389-23-53-20-97 14-175 26-62 62-92 90-77 52 28 94 199 104 423 8 205 3 191 82 208l67 14 5-650c4-576 7-655 21-687 10-20 22-40 28-43 23-14 52 7 77 55 52 104 73 386 74 981v376l106 7c69 5 109 4 116-3 15-15 6-470-10-498-10-20-15-21-59-11-133 28-155 4-70-76 30-29 72-74 92-102 38-51 68-74 95-75 24 0 88 57 114 103 36 63 46 129 52 351 5 157 11 213 25 258 11 32 19 66 19 76 0 39-148 152-199 152-9 0-66-11-126-25-61-14-120-25-132-25h-23l1 183c0 100 4 205 9 232 25 135 25 140-6 162-65 47-227 71-254 38z"/></g></svg></svg>
