<svg version="1.1" viewBox="0 0 100 100" xmlns="http://www.w3.org/2000/svg"><title>傌</title><circle cx="50" cy="50" r="50" fill="#eb5"/><circle cx="50" cy="50" r="45" fill="#eb5" stroke="#f00" stroke-width="2"/><svg x="15" y="15" width="70px" height="70px" version="1.1" viewBox="0 0 250 250"><g transform="scale(.1 -.1)" fill="#f00"><path d="m801-300c-15-15-21-34-21-64 0-153-174-485-393-750-47-56-106-122-131-147-68-65-58-105 20-80 51 17 218 146 292 224 34 36 64 66 67 66 9 0 5-383-6-499-6-63-22-158-37-210-32-119-32-158 3-241 33-80 50-100 85-100 34 0 45 13 69 81 24 72 30 144 41 529 5 179 14 349 21 378 14 66 9 84-40 148l-39 51 50 78c27 43 81 134 120 204 39 69 81 139 94 154 13 16 24 38 24 49 0 26-80 105-124 123-64 26-74 27-95 6z"/><path d="m1815-281c-91-25-337-65-548-89-92-10-174-24-182-31-21-17-19-46 6-98 21-42 21-52 16-350-4-211-10-332-21-387-8-44-13-91-9-105 9-42 44-97 69-110 19-11 28-9 60 9 87 52 353 98 616 108 128 5 171 3 183-7 11-9 15-34 15-105 0-104-15-272-31-355-18-90-78-190-114-190-8 0-53 21-101 46-85 45-109 49-120 20-7-17 164-265 203-296 36-28 63-25 119 12 129 87 189 244 214 562 13 160 22 211 50 272 11 23 20 52 20 63 0 26-51 68-129 104-73 34-88 36-221 19-52-6-128-14-167-18l-73-6v75c0 42 5 79 10 82 6 4 63 13 128 20 65 8 126 17 137 21 31 11 55 35 55 55 0 43-151 86-242 69-84-16-82-18-74 52 4 35 8 64 9 65s54 8 117 17c126 16 146 21 173 44 43 37 8 70-103 96-48 11-75 12-121 4-33-6-62-9-63-7-2 2 0 33 6 69 5 36 7 72 5 80-3 13 20 20 127 37 151 25 205 41 220 66 16 25-1 48-56 75-63 32-102 34-183 12zm-327-217c5-10 12-50 15-90 6-72 6-72-21-77-58-12-158-26-186-26h-29l6 91c3 50 9 94 12 98 6 5 59 11 172 19 12 1 26-6 31-15zm20-370-3-68-50-7c-27-4-83-11-122-16l-73-8v73 73l63 1c34 0 85 4 112 9 28 4 56 8 63 9 10 1 12-16 10-66zm2-286v-83l-107-17c-60-10-118-20-130-23-23-6-23-5-23 90v96l68 1c56 1 181 12 190 18 1 0 2-36 2-82z"/><path d="m1163-1538c-8-19 5-68 47-185 39-107 61-138 101-138 49 0 69 30 69 104 0 107-24 153-109 207-50 33-98 38-108 12z"/><path d="m1380-1481c-9-17-1-39 45-130 86-168 133-203 190-145 29 28 33 86 11 148-19 53-37 70-116 111-77 41-114 45-130 16z"/><path d="m1002-1478c-5-10-12-31-16-47-4-15-30-78-58-140-45-97-52-119-52-177-1-53 3-71 19-89 70-78 138-24 185 145 32 112 31 205-1 270-26 54-60 71-77 38z"/><path d="m1632-1403c-25-25-7-68 88-209 48-69 74-89 117-89 56 0 81 44 69 125-10 62-47 102-131 141-87 40-126 49-143 32z"/></g></svg></svg>
