<svg version="1.1" viewBox="0 0 100 100" xmlns="http://www.w3.org/2000/svg"><title>兵</title><circle cx="50" cy="50" r="50" fill="#eb5"/><circle cx="50" cy="50" r="45" fill="#eb5" stroke="#f00" stroke-width="2"/><svg x="15" y="15" width="70px" height="70px" version="1.1" viewBox="0 0 250 250"><g transform="scale(.1 -.1)" fill="#f00"><path d="m1430-267c-8-3-40-25-70-49-82-64-202-134-335-193l-118-54-41 20c-23 12-67 26-99 33-103 21-141-23-99-113 13-27 43-182 86-439 36-219 66-399 66-402 0-9-209-28-387-34-160-6-195-10-209-24-29-29-11-62 53-96 105-56 129-57 304-23 190 37 347 57 549 70 85 6 202 13 260 17s276 8 485 8c416 1 425 2 425 56 0 36-53 82-130 111-80 31-117 33-221 16-114-20-379-50-385-45-8 8 68 274 88 305 25 42 18 63-40 113-38 32-43 40-26 40 12 0 84 7 160 16 146 17 178 29 172 68-4 28-57 61-137 87l-66 21-225-56c-217-53-508-116-541-116-19 0-25 30-35 156-4 52-3 83 4 88 5 3 70 22 144 41 73 19 201 53 283 75 83 22 179 45 215 51 73 13 134 40 143 64 11 28-16 65-83 115-94 70-146 90-190 73zm-31-758c10-20 15-58 14-112-2-89-20-274-28-282-3-2-58-8-123-12-64-4-151-11-192-14l-76-7-22 189c-12 103-22 194-22 201s16 12 43 13c23 0 110 13 192 29 182 35 195 34 214-5z"/><path d="m894-1678c-6-4-14-27-18-51-5-33-21-62-61-112-62-76-267-252-380-325-78-51-91-74-53-98 52-32 377 135 572 293 38 31 96 74 130 96 51 33 62 45 64 71 3 26-3 37-33 62-57 46-190 85-221 64z"/><path d="m1367-1707c-18-18 1-46 89-133 52-52 138-145 190-206 96-112 185-189 232-201 15-3 36 0 51 8 83 47 63 223-35 308-88 78-291 184-420 220-44 12-97 14-107 4z"/></g></svg></svg>
