<svg version="1.1" viewBox="0 0 100 100" xmlns="http://www.w3.org/2000/svg"><title>俥</title><circle cx="50" cy="50" r="50" fill="#eb5"/><circle cx="50" cy="50" r="45" fill="#eb5" stroke="#f00" stroke-width="2"/><svg x="15" y="15" width="70px" height="70px" version="1.1" viewBox="0 0 250 250"><g transform="scale(.1 -.1)" fill="#f00"><path d="m1340-200c-18-18-16-40 8-111 11-33 23-98 26-143 5-69 3-83-10-88-9-3-64-12-122-18-124-15-145-25-128-62 20-44 67-60 171-61h92v-68c0-58-3-68-17-68-10-1-62-7-117-14-91-12-102-12-147 5-71 27-117 25-131-6-9-21-7-30 15-62 35-51 43-88 68-303 25-221 42-265 99-265 28 0 37 5 48 28 10 21 20 27 45 27 18 0 56 3 85 6l52 7v-70-70l-157-21c-87-12-192-22-233-23-104 0-171-13-187-35-11-15-13 10-13 162 1 163 6 235 25 364 7 43 4 50-39 113-25 37-46 69-46 72 0 2 24 44 53 92s79 137 111 196 69 121 82 136c37 44 31 77-19 126-76 73-175 107-195 68-5-10-12-48-16-84-8-83-33-161-95-292-94-202-261-449-410-610-82-88-88-113-27-111 55 2 159 76 295 211 62 62 115 113 117 113s4-87 4-192c0-288-21-485-64-607-23-62-20-111 11-188 37-95 58-123 92-123 65 0 99 100 107 319 3 86 7 167 10 180l5 24 22-21c28-26 126-71 170-79 20-3 74 4 128 17 82 19 242 50 260 50 3 0 8-127 11-283 5-258 7-288 26-330 32-72 74-57 110 38 25 66 52 329 52 506v86l77 7c42 3 198 6 347 7 285 0 337 7 344 43 6 28-16 62-57 89-53 35-167 70-204 64-18-3-70-13-117-22-84-15-324-45-367-45-22 0-23 4-23 69 0 79-5 76 103 86 65 6 69 5 88-19 25-32 56-33 100-3 41 27 57 65 134 317 32 102 61 189 66 195 5 5 9 21 9 36 0 32-22 50-117 98-65 32-101 38-149 21-16-5-75-21-131-34l-103-24v64c0 58 2 64 21 64 35 0 218 40 260 56 33 14 39 21 39 45 0 25-8 32-52 55-63 32-111 34-195 9-34-11-64-17-67-15-2 3 0 41 6 85s11 100 12 125c1 44 0 45-48 69-58 29-183 41-203 20zm465-689c2-19 1-53-3-76l-6-41-57 13c-42 10-71 11-111 4-30-6-56-10-58-10s-3 27-3 59v59l73 12c39 6 79 13 87 15s29 2 45 2c27-2 30-6 33-37zm-430-87-3-58-45-6c-25-3-66-9-92-12l-48-7v50 49l53 15c69 19 88 23 115 25 22 1 23-2 20-56zm398-183c-10-78-6-75-111-76l-95-1v48c0 54-8 51 135 68 39 5 72 9 74 10 2 0 1-22-3-49zm-396-63v-55l-81-7c-44-4-82-6-83-4-2 2-6 29-10 59l-7 55 91 3 90 3v-54z"/></g></svg></svg>
