<?xml version="1.0"?>
<svg width="100" height="100" xmlns="http://www.w3.org/2000/svg" xmlns:xlink="http://www.w3.org/1999/xlink">
<title>&#22763;</title>
<circle id="cir_1" r="50" cx="50" cy="50" fill="#eb5"/>
<circle id="cir_2" r="45" cx="50" cy="50" stroke-width="2" stroke="#000" fill="#eb5"/>
<svg x="15" y="15" viewBox="0 0 250 250" width="70px" height="70px">
<g transform="scale(0.1,-0.1)" fill="#000">
<path d="M1050 -380 c-27 -34 -26 -49 4 -105 35 -67 48 -193 49 -479 l1 -244
-190 -22 c-104 -12 -251 -29 -325 -38 -74 -9 -164 -16 -200 -16 -116 0 -168
-27 -150 -76 9 -24 127 -105 177 -122 33 -11 46 -9 173 27 81 22 330 65 448
76 l72 8 0 -287 c0 -157 -1 -286 -2 -286 -2 0 -77 -9 -168 -20 -91 -11 -204
-20 -252 -20 -95 0 -134 -12 -144 -44 -9 -27 41 -69 116 -97 71 -27 110 -27
250 -2 177 33 327 44 675 49 192 3 331 9 347 15 81 32 16 114 -128 164 -66 23
-72 23 -148 9 -79 -14 -349 -45 -351 -41 -1 1 1 133 4 292 l6 290 150 13 c90
7 275 11 463 10 l314 -3 19 24 c45 55 -33 134 -181 184 -41 14 -56 13 -165 -3
-108 -17 -532 -60 -586 -60 -22 0 -22 0 -15 158 10 223 33 412 57 466 18 41
18 49 5 79 -16 39 -56 67 -150 102 -90 34 -148 33 -175 -1z"/>
</g>
</svg>
</svg>
