<?xml version="1.0"?>
<svg width="100" height="100" xmlns="http://www.w3.org/2000/svg" xmlns:xlink="http://www.w3.org/1999/xlink">
<title>&#35937;</title>
<circle id="cir_1" r="50" cx="50" cy="50" fill="#eb5"/>
<circle id="cir_2" r="45" cx="50" cy="50" stroke-width="2" stroke="#000" fill="#eb5"/>
<svg x="15" y="15" viewBox="0 0 250 250" width="70px" height="70px">
<g transform="scale(0.1,-0.1)" fill="#000">
<path d="M900 -200 c-2 -8 -7 -30 -10 -49 -10 -58 -85 -159 -214 -289 -73
-74 -122 -130 -120 -140 5 -27 53 -24 116 8 62 31 187 115 198 132 3 6 27 8
57 4 29 -3 90 1 137 9 47 7 87 12 89 10 2 -2 -35 -46 -82 -98 l-87 -94 -112
-12 c-135 -14 -234 -16 -305 -5 -87 13 -111 -30 -49 -88 29 -28 37 -47 61
-147 41 -176 84 -232 138 -183 15 14 42 22 87 26 l65 6 -54 -50 c-71 -66 -235
-182 -339 -239 -64 -35 -81 -49 -79 -65 3 -28 47 -31 116 -9 75 23 240 101
324 152 68 43 91 49 116 33 54 -34 -284 -305 -512 -411 -79 -37 -96 -49 -94
-65 4 -33 68 -31 178 6 180 60 357 163 487 283 33 31 64 56 69 56 5 0 15 -11
21 -24 16 -37 -28 -97 -150 -206 -158 -141 -278 -220 -520 -341 -98 -49 -121
-70 -99 -92 8 -8 33 -6 99 7 249 52 449 151 643 318 38 32 70 58 73 58 13 0
17 -77 7 -150 -12 -87 -40 -165 -69 -186 -24 -19 -87 -17 -165 5 -60 17 -69
18 -82 5 -20 -20 -13 -31 76 -124 41 -42 94 -99 119 -128 39 -44 51 -52 81
-52 69 0 163 102 200 218 29 89 38 361 16 465 -8 37 -11 67 -7 65 5 -2 57 -59
116 -128 193 -224 284 -318 328 -340 55 -26 128 -26 259 1 120 25 173 44 182
67 9 25 -13 39 -135 85 -296 113 -397 175 -635 390 l-60 54 110 53 c61 29 152
72 203 96 50 24 92 48 92 53 0 23 -60 76 -115 102 -89 43 -128 38 -140 -16 -9
-35 -73 -105 -163 -177 l-62 -50 -48 24 c-26 13 -70 47 -98 75 -28 28 -71 61
-95 74 l-44 22 42 20 c47 23 58 40 43 66 -10 20 2 22 202 37 86 7 88 7 109
-20 23 -29 59 -34 97 -13 13 8 53 69 93 142 39 72 84 144 101 162 40 41 33 72
-25 111 -58 41 -160 82 -199 82 -18 0 -89 -14 -158 -30 -68 -16 -125 -28 -127
-26 -9 8 190 162 256 198 36 20 42 55 13 81 -28 26 -125 67 -158 67 -17 0 -77
-17 -135 -39 -57 -21 -117 -42 -133 -45 -26 -6 -28 -5 -17 8 7 9 29 25 47 37
48 29 58 52 40 87 -26 50 -198 108 -210 71z m561 -619 c-3 -27 -15 -70 -26
-95 -18 -41 -21 -44 -48 -36 -16 5 -75 4 -131 -2 -56 -5 -105 -8 -107 -5 -2 2
-1 40 3 84 l7 79 90 11 c50 6 119 12 154 13 l64 1 -6 -50z m-462 -10 c3 -5 3
-43 -1 -84 l-7 -74 -71 -6 c-39 -4 -94 -9 -122 -12 l-50 -6 -13 82 c-7 45 -11
83 -9 85 2 2 161 17 245 23 12 1 25 -2 28 -8z"/>
</g>
</svg>
</svg>
