<?xml version="1.0"?>
<svg width="100" height="100" xmlns="http://www.w3.org/2000/svg" xmlns:xlink="http://www.w3.org/1999/xlink">
<title>&#30456;</title>
<circle id="cir_1" r="50" cx="50" cy="50" fill="#eb5"/>
<circle id="cir_2" r="45" cx="50" cy="50" stroke-width="2" stroke="#f00" fill="#eb5"/>
<svg x="15" y="15" viewBox="0 0 250 250" width="70px" height="70px">
<g transform="scale(0.1,-0.1)" fill="#f00">
<path d="M804 -250 c-16 -24 -16 -29 4 -87 28 -81 42 -201 42 -363 l0 -131
-72 -12 c-40 -7 -135 -21 -212 -31 -76 -10 -143 -23 -149 -29 -18 -18 5 -62
43 -83 32 -18 50 -19 188 -15 105 4 152 2 152 -5 0 -19 -79 -158 -158 -278
-62 -94 -107 -146 -245 -282 -168 -166 -190 -198 -136 -198 31 0 167 61 236
106 82 54 208 183 278 288 l60 88 3 -40 c5 -63 -35 -497 -54 -587 -10 -47 -14
-100 -11 -132 6 -59 49 -163 79 -190 17 -16 22 -16 46 -3 16 9 39 40 57 75
l30 60 3 408 c2 224 6 407 10 407 4 0 30 -28 57 -61 111 -135 199 -157 225
-57 18 67 -8 120 -81 168 -32 21 -93 50 -134 65 l-76 28 7 86 c4 47 8 88 10
90 1 2 55 13 118 26 172 34 224 67 181 115 -21 23 -104 59 -141 61 -16 1 -55
-6 -87 -15 -32 -10 -61 -16 -64 -13 -8 9 18 307 33 364 12 47 12 58 -1 83 -17
34 -54 61 -127 95 -68 32 -93 32 -114 -1z"/>
<path d="M1902 -594 c-106 -33 -328 -80 -387 -81 -22 0 -64 2 -92 6 -83 12
-102 -17 -63 -93 37 -70 43 -148 36 -472 -4 -168 -11 -343 -16 -390 -21 -193
-23 -246 -10 -286 34 -102 94 -150 132 -104 10 12 18 33 18 46 0 13 6 24 13
24 6 0 91 7 187 15 96 8 185 15 197 15 18 0 30 -15 59 -72 37 -73 64 -108 84
-108 6 0 31 14 55 30 32 22 53 48 76 96 40 81 41 116 10 377 -20 167 -22 222
-18 485 3 209 8 310 18 339 20 65 6 89 -81 145 -41 26 -86 49 -100 52 -14 3
-66 -8 -118 -24z m75 -162 c6 -7 13 -68 17 -136 l6 -123 -63 7 c-48 4 -84 0
-162 -19 -135 -34 -215 -50 -222 -43 -3 3 -2 66 2 140 6 113 10 136 24 140 19
6 172 33 216 39 73 10 173 7 182 -5z m23 -508 c0 -66 -2 -120 -5 -120 -2 0
-26 5 -53 11 -43 9 -70 6 -199 -20 -213 -44 -193 -53 -193 83 l0 113 98 6 c53
4 142 15 197 26 55 11 112 20 128 20 l27 1 0 -120z m-3 -322 c-4 -46 -7 -104
-7 -130 l0 -48 -57 0 c-32 0 -107 -6 -168 -14 -60 -8 -137 -17 -170 -20 l-60
-6 3 125 3 125 52 1 c29 0 122 11 207 24 227 34 204 40 197 -57z"/>
</g>
</svg>
</svg>
